<?xml version="1.0" encoding="utf-8"?>
<!-- Generator: Adobe Illustrator 25.2.1, SVG Export Plug-In . SVG Version: 6.00 Build 0)  -->
<svg version="1.1" id="Layer_1" xmlns="http://www.w3.org/2000/svg" xmlns:xlink="http://www.w3.org/1999/xlink" x="0px" y="0px"
	 viewBox="0 0 400 400" style="enable-background:new 0 0 400 400;" xml:space="preserve">
<style type="text/css">
	.st0{fill:#FFFFFF;}
	.st1{fill:#5270AF;}
	.st2{fill:none;stroke:#FFFFFF;stroke-width:1.0808;stroke-miterlimit:10;}
	.st3{fill:#FFFFFF;stroke:#000000;stroke-width:1.0918;stroke-miterlimit:10;}
	.st4{fill:none;stroke:#FFFFFF;stroke-width:3;stroke-linecap:round;stroke-linejoin:round;stroke-miterlimit:10;}
	.st5{fill:none;stroke:#C1C1C1;stroke-width:2.2004;stroke-miterlimit:10;}
	.st6{fill:#FDFDFD;}
	.st7{fill:none;stroke:#FFFFFF;stroke-width:2;stroke-linecap:round;stroke-linejoin:round;stroke-miterlimit:10;}
	.st8{fill:none;stroke:#FFFFFF;stroke-width:1.1503;stroke-miterlimit:10;}
	.st9{fill:none;stroke:#C1C1C1;stroke-width:2.342;stroke-miterlimit:10;}
	.st10{fill:none;stroke:#FFFFFF;stroke-width:2.1287;stroke-linecap:round;stroke-linejoin:round;stroke-miterlimit:10;}
	.st11{fill:#496FA4;}
	.st12{fill:#FFFFFF;stroke:#000000;stroke-width:1.4181;stroke-miterlimit:10;}
	.st13{fill:none;stroke:#FFFFFF;stroke-width:3.8965;stroke-linecap:round;stroke-linejoin:round;stroke-miterlimit:10;}
	.st14{clip-path:url(#SVGID_20_);}
	.st15{fill:none;stroke:#496FA4;stroke-width:2.3999;stroke-miterlimit:10;}
	.st16{clip-path:url(#SVGID_42_);}
	.st17{fill:none;stroke:#496FA4;stroke-width:2.8047;stroke-miterlimit:10;}
	.st18{fill:#FFFFFF;stroke:#000000;stroke-width:1.279;stroke-miterlimit:10;}
	.st19{fill:#080A0A;}
	.st20{fill:none;stroke:#496FA4;stroke-width:2.3353;stroke-miterlimit:10;}
	.st21{opacity:0.3;}
	.st22{fill:none;stroke:#496FA4;stroke-width:0.4526;stroke-miterlimit:10;}
	.st23{fill:none;stroke:#496FA4;stroke-width:0.4639;stroke-miterlimit:10;}
	.st24{fill:none;stroke:#496FA4;stroke-width:1.9989;stroke-miterlimit:10;}
	.st25{opacity:0.3;fill:none;stroke:#496FA4;stroke-width:0.4526;stroke-miterlimit:10;}
	.st26{clip-path:url(#SVGID_64_);}
	.st27{fill:none;stroke:#496FA4;stroke-width:2.9872;stroke-miterlimit:10;}
	.st28{opacity:0.44;fill:#496FA4;}
	.st29{fill:#CFCFD1;}
	.st30{fill:none;stroke:#000000;stroke-width:0.7105;stroke-miterlimit:10;}
	.st31{fill:none;stroke:#496FA4;stroke-width:1.4211;stroke-miterlimit:10;}
	.st32{fill:#8E8E8E;}
	.st33{fill:none;stroke:#000000;stroke-width:3;stroke-linecap:round;stroke-linejoin:round;stroke-miterlimit:10;}
	.st34{fill:none;stroke:#FFFFFF;stroke-width:17.4772;stroke-linecap:round;stroke-linejoin:round;stroke-miterlimit:10;}
</style>
<g>
	<g>
		<polygon class="st0" points="254.28,52.68 254.28,35.51 93.14,35.51 93.14,262.13 110.31,262.13 110.31,52.68 		"/>
		<rect x="116.67" y="268.49" class="st0" width="17.96" height="17.17"/>
		<rect x="260.64" y="59.04" class="st0" width="17.17" height="17.96"/>
		<polygon class="st0" points="134.63,77 254.28,77 254.28,59.04 116.67,59.04 116.67,262.13 134.63,262.13 		"/>
		<rect x="257.46" y="59.04" class="st0" width="3.18" height="17.96"/>
		<rect x="116.67" y="265.31" class="st0" width="17.96" height="3.18"/>
		<rect x="254.28" y="59.04" class="st0" width="3.18" height="17.96"/>
		<rect x="116.67" y="262.13" class="st0" width="17.96" height="3.18"/>
		<rect x="140.99" y="292.02" class="st0" width="17.96" height="17.96"/>
		<rect x="284.17" y="83.36" class="st0" width="17.96" height="17.96"/>
		<rect x="140.99" y="268.49" class="st0" width="17.96" height="17.17"/>
		<rect x="260.64" y="83.36" class="st0" width="17.17" height="17.96"/>
		<polygon class="st0" points="254.28,101.32 254.28,83.36 140.99,83.36 140.99,262.13 158.95,262.13 158.95,101.32 		"/>
		<rect x="257.46" y="83.36" class="st0" width="3.18" height="17.96"/>
		<rect x="140.99" y="265.31" class="st0" width="17.96" height="3.18"/>
		<rect x="254.28" y="83.36" class="st0" width="3.18" height="17.96"/>
		<rect x="140.99" y="262.13" class="st0" width="17.96" height="3.18"/>
		<rect x="280.99" y="83.36" class="st0" width="3.18" height="17.96"/>
		<rect x="140.99" y="288.84" class="st0" width="17.96" height="3.18"/>
		<rect x="140.99" y="285.66" class="st0" width="17.96" height="3.18"/>
		<rect x="277.81" y="83.36" class="st0" width="3.18" height="17.96"/>
		<polygon class="st0" points="165.31,316.33 165.31,334.29 326.44,334.29 326.44,107.68 308.49,107.68 308.49,316.33 		"/>
		<polygon class="st0" points="302.13,107.68 284.17,107.68 284.17,292.02 165.31,292.02 165.31,309.97 302.13,309.97 		"/>
		<polygon class="st0" points="260.64,268.49 165.31,268.49 165.31,285.66 277.81,285.66 277.81,107.68 260.64,107.68 		"/>
		<rect x="165.31" y="107.68" class="st0" width="88.97" height="154.45"/>
		<polygon class="st0" points="260.64,107.68 257.46,107.68 257.46,265.31 165.31,265.31 165.31,268.49 260.64,268.49 		"/>
		<polygon class="st0" points="257.46,107.68 254.28,107.68 254.28,262.13 165.31,262.13 165.31,265.31 257.46,265.31 		"/>
		<polygon class="st0" points="280.99,288.84 165.31,288.84 165.31,292.02 284.17,292.02 284.17,107.68 280.99,107.68 		"/>
		<polygon class="st0" points="277.81,285.66 165.31,285.66 165.31,288.84 280.99,288.84 280.99,107.68 277.81,107.68 		"/>
		<polygon class="st0" points="165.31,313.15 165.31,316.33 308.49,316.33 308.49,107.68 305.31,107.68 305.31,313.15 		"/>
		<polygon class="st0" points="302.13,309.97 165.31,309.97 165.31,313.15 305.31,313.15 305.31,107.68 302.13,107.68 		"/>
	</g>
	<line class="st34" x1="29.05" y1="364.49" x2="370.95" y2="364.49"/>
</g>
</svg>
