<?xml version="1.0" standalone="no"?>
<!DOCTYPE svg PUBLIC "-//W3C//DTD SVG 1.1//EN" "http://www.w3.org/Graphics/SVG/1.1/DTD/svg11.dtd" >
<svg xmlns="http://www.w3.org/2000/svg" xmlns:xlink="http://www.w3.org/1999/xlink" version="1.1">
<metadata></metadata>
<defs>
<font id="gt_americacompressedMdIt" horiz-adv-x="776" >
<font-face units-per-em="2048" ascent="1638" descent="-410" />
<missing-glyph horiz-adv-x="352" />
<glyph unicode="&#xfb01;" horiz-adv-x="964" d="M59 0l156 874h-119l27 150h119l32 190q23 137 94 210t207 73q61 0 115 -16l-28 -166q-30 10 -64 10q-59 0 -85.5 -31t-37.5 -98l-31 -172h166l-26 -150h-164l-156 -874h-205zM563 0l180 1024h203l-180 -1024h-203zM756 1186l43 244h215l-43 -244h-215z" />
<glyph unicode="&#xfb02;" horiz-adv-x="970" d="M59 0l156 874h-119l27 150h119l32 190q23 137 94 210t207 73q61 0 115 -16l-28 -166q-30 10 -64 10q-59 0 -85.5 -31t-37.5 -98l-31 -172h166l-26 -150h-164l-156 -874h-205zM565 0l262 1485h205l-262 -1485h-205z" />
<glyph horiz-adv-x="0" />
<glyph horiz-adv-x="0" />
<glyph horiz-adv-x="682" />
<glyph unicode="&#xd;" horiz-adv-x="0" />
<glyph unicode=" "  horiz-adv-x="352" />
<glyph unicode="&#x09;" horiz-adv-x="352" />
<glyph unicode="&#xa0;" horiz-adv-x="352" />
<glyph unicode="!" horiz-adv-x="483" d="M31 0l43 252h241l-43 -252h-241zM137 414l152 1054h243l-221 -1054h-174z" />
<glyph unicode="&#x22;" horiz-adv-x="700" d="M190 903l64 551h211l-127 -551h-148zM506 903l63 551h211l-127 -551h-147z" />
<glyph unicode="#" horiz-adv-x="985" d="M-2 412l14 149h215l86 301h-178l17 150h204l119 405h166l-117 -405h183l116 405h168l-119 -405h183l-17 -150h-209l-86 -301h185l-15 -149h-215l-118 -412h-166l118 412h-182l-119 -412h-168l119 412h-184zM393 561h182l89 301h-183z" />
<glyph unicode="$" horiz-adv-x="862" d="M16 369l11 67l196 37l-20 -100q-22 -106 12 -165.5t104 -74.5l93 522l-90 70q-100 85 -141 173.5t-15 215.5l12 57q9 43 23 78.5t42.5 74t67.5 65t101 44t141 19.5l31 180h90l-33 -184q67 -7 118.5 -30t91.5 -67t51.5 -110.5t-1.5 -161.5l-8 -47l-193 -39l15 78 q36 189 -101 225l-86 -491l103 -80q103 -85 142 -169.5t20 -188.5l-17 -95q-23 -135 -120.5 -217.5t-274.5 -85.5l-33 -188h-90l35 192q-154 19 -232 116t-45 280zM350 1098q-16 -75 10.5 -124t90.5 -104l75 430q-80 -5 -115 -42.5t-46 -94.5zM410 129q88 4 126.5 41 t49.5 113l12 67q13 73 -12 128.5t-94 115.5z" />
<glyph unicode="%" horiz-adv-x="1286" d="M100 -29l1030 1520h150l-1026 -1520h-154zM115 867q-12 47 2 112l37 211q8 42 18 75t31 71t48.5 63t72.5 42t102 17q31 0 60.5 -5t61 -16.5t54.5 -31.5t41.5 -50t22 -71t-3.5 -96l-39 -211q-7 -41 -17 -75t-30.5 -71.5t-48.5 -63t-73 -42t-102 -16.5q-38 0 -73 7 t-71.5 25t-58.5 48.5t-34 77.5zM281 977q-22 -137 71 -137q49 0 72.5 36t34.5 99l39 215q22 137 -72 137q-49 0 -72.5 -36t-34.5 -99zM691.5 152q-3.5 41 4.5 96l37 211q8 42 18 75t31 71t49 63t73 42t102 17q38 0 73 -7t71 -25t58 -48.5t34 -77.5t-1 -112l-39 -211 q-9 -53 -24 -94.5t-44 -84t-80.5 -66.5t-121.5 -24q-31 0 -60.5 5t-61 16.5t-55 31.5t-42 50.5t-22 71.5zM860 246q-22 -137 72 -137q49 0 72 35.5t34 99.5l39 215q22 137 -71 137q-49 0 -72.5 -36t-34.5 -99z" />
<glyph unicode="&#x26;" horiz-adv-x="997" d="M16 362l11 66q18 114 72.5 187t197.5 163q-49 114 -67.5 202.5t-2.5 178.5l15 86q40 264 321 264q54 0 100.5 -12.5t89.5 -42.5t63 -90t9 -145l-12 -101q-14 -101 -75 -184t-187 -162l-31 -18l166 -375q30 75 57 215l37 194l164 -40l-29 -170q-43 -232 -137 -375 q37 -37 88 -37q30 0 54 8l-31 -174q-36 -8 -64 -8q-100 0 -172 69q-120 -96 -284 -96q-59 0 -113.5 12t-105 42t-85 74t-49 113.5t-0.5 155.5zM221 342q-14 -89 38 -146t147 -57q91 0 159 58l-209 454q-63 -46 -87 -92t-36 -121zM420.5 1028q9.5 -58 44.5 -145l6 4 q73 47 103 103t40 134l17 117q10 65 -14 94t-66 29q-89 0 -111 -125l-18 -90q-11 -63 -1.5 -121z" />
<glyph unicode="'" horiz-adv-x="387" d="M190 903l64 551h211l-127 -551h-148z" />
<glyph unicode="(" horiz-adv-x="526" d="M98 420q0 677 475 1179l148 -92q-100 -116 -170.5 -221.5t-132 -238.5t-92.5 -289.5t-31 -337.5q0 -321 115 -629l-170 -76q-73 160 -107.5 349t-34.5 356z" />
<glyph unicode=")" horiz-adv-x="526" d="M-143 -193q99 116 170 222t132.5 238.5t92.5 289.5t31 338q0 321 -115 629l170 75q73 -160 107 -348.5t34 -355.5q0 -678 -475 -1180z" />
<glyph unicode="*" horiz-adv-x="645" d="M135 1176l88 165l176 -108l2 227h177l-78 -227l213 108l28 -165l-229 -39l137 -176l-164 -101l-63 217l-143 -217l-125 101l198 178z" />
<glyph unicode="+" horiz-adv-x="847" d="M78 592l28 166h271l49 282h182l-49 -282h268l-28 -166h-271l-53 -307h-182l53 307h-268z" />
<glyph unicode="," horiz-adv-x="419" d="M-33 -190q53 15 86 53t47 117l2 20h-108l47 274h248l-49 -276q-25 -141 -79.5 -203t-156.5 -92z" />
<glyph unicode="-" horiz-adv-x="585" d="M57 473l35 193h455l-33 -193h-457z" />
<glyph unicode="." horiz-adv-x="409" d="M-2 0l47 274h236l-48 -274h-235z" />
<glyph unicode="/" horiz-adv-x="724" d="M-53 -240l696 1796h186l-698 -1796h-184z" />
<glyph unicode="0" horiz-adv-x="917" d="M54 265q-2 69 12 159l100 582q13 73 28.5 129t47.5 119.5t74.5 104.5t112.5 68t159 27q44 0 83.5 -6t79.5 -20.5t71 -38.5t57.5 -59t39 -82.5t16 -109.5t-12.5 -139l-103 -581q-13 -74 -28.5 -130t-47.5 -119t-74.5 -104t-112.5 -68.5t-159 -27.5q-51 0 -96 8.5t-90 29 t-76.5 54.5t-55 84.5t-25.5 119.5zM263 272.5q4 -50.5 26.5 -80t49.5 -40.5t62 -11q40 0 72 15.5t53 39t37.5 59t25.5 69t17 75.5l111 623q25 143 -15 201.5t-118 58.5q-40 0 -72 -15.5t-53 -39t-37.5 -59t-25.5 -69t-17 -75.5l-109 -623q-11 -78 -7 -128.5z" />
<glyph unicode="1" horiz-adv-x="616" d="M121 1026l35 201h55q82 0 146.5 49.5t95.5 146.5h172l-250 -1423h-209l190 1092q-54 -66 -176 -66h-59z" />
<glyph unicode="2" horiz-adv-x="811" d="M-49 0l29 168q287 287 456 500q79 100 126.5 187.5t66.5 186.5l10 64q16 90 -15.5 133t-97.5 43q-41 0 -70 -15t-46.5 -44.5t-27 -59t-17.5 -71.5q-16 -81 -21 -140l-209 31q5 50 19 113q16 84 42 145t69.5 111.5t111.5 76t160 25.5q83 0 146 -21.5t108.5 -68.5 t58.5 -122t-4 -183l-6 -33q-38 -201 -207 -414q-168 -213 -385 -430h454l-32 -182h-719z" />
<glyph unicode="3" horiz-adv-x="815" d="M16 352l11 70l215 29l-13 -89q-11 -56 -6 -95t14.5 -64t29.5 -38.5t39 -18.5t44 -5q35 0 60.5 10t41.5 24.5t28.5 43t19 53.5t14.5 68l18 109q39 202 -124 202h-58l33 180h55q82 0 126.5 47.5t64.5 168.5l10 55q18 102 -13 142t-100 40q-38 0 -66.5 -13t-45 -31t-29 -51 t-17.5 -57.5t-12 -66.5l-16 -88l-205 31l12 77q8 58 22.5 107t43 99t68.5 84.5t102 56.5t141 22q55 0 100 -6t96.5 -27.5t83 -57.5t46.5 -102t2 -155l-10 -68q-20 -131 -86.5 -207.5t-165.5 -91.5q90 -19 132.5 -96.5t22.5 -193.5l-18 -117q-28 -176 -114.5 -269.5 t-262.5 -93.5q-80 0 -144.5 19.5t-115.5 62t-71.5 119.5t-2.5 182z" />
<glyph unicode="4" horiz-adv-x="854" d="M-12 324l28 159l574 940h241l-165 -931h149l-29 -168h-149l-57 -324h-205l57 324h-444zM190 492h273l108 528q4 19 19 92.5t24 114.5h-4q-29 -74 -102 -203l-234 -406q-46 -80 -84 -126z" />
<glyph unicode="5" horiz-adv-x="819" d="M29 322l10 55l213 26l-10 -57q-37 -207 112 -207q37 0 65 11.5t46.5 30t32.5 51.5t22 65t17 82l32 174q21 120 -9 175.5t-97 55.5q-61 0 -105.5 -43.5t-66.5 -119.5l-191 18l176 784h607l-31 -182h-444l-99 -420q75 135 238 135q62 0 111 -21.5t84.5 -69t45 -123 t-7.5 -183.5l-28 -174q-14 -77 -33 -137t-50.5 -114t-74.5 -89t-104.5 -55.5t-139.5 -20.5q-79 0 -142.5 18.5t-111.5 58.5t-66.5 110.5t-0.5 165.5z" />
<glyph unicode="6" horiz-adv-x="854" d="M47.5 306.5q0.5 61.5 13.5 133.5l101 576q10 57 19.5 97t25.5 89t36 83t50.5 68t69 54.5t92 33.5t118.5 13q69 0 125.5 -14t108 -48t74.5 -102t8 -164l-6 -39l-217 -34l10 53q18 97 -15 140.5t-102 43.5q-38 0 -67 -14t-47 -34.5t-32 -57.5t-21.5 -69.5t-16.5 -84.5 l-29 -162q82 88 215 88q47 0 87.5 -11.5t77 -38.5t57 -72t29.5 -111t-7 -156l-33 -194q-30 -200 -124 -302t-269 -102q-34 0 -66 4t-66 13.5t-62.5 27.5t-55 42.5t-44 61t-28 82t-10 107zM262 391q-45 -252 133 -252q65 0 105.5 50.5t62.5 185.5l31 194q34 217 -113 217 q-106 0 -168 -106z" />
<glyph unicode="7" horiz-adv-x="743" d="M104 0l15 98q50 332 174.5 608t345.5 533h-485l32 184h693l-27 -147q-215 -239 -332.5 -505t-165.5 -581l-30 -190h-220z" />
<glyph unicode="8" horiz-adv-x="858" d="M25.5 249.5q-5.5 51.5 7.5 115.5l14 88q11 63 34.5 112t76.5 94.5t133 71.5q-154 96 -121 291l18 117q8 48 23 90.5t44 85t68.5 72.5t99.5 48.5t134 18.5q44 0 84.5 -6.5t83 -21.5t73.5 -39.5t56 -62t30.5 -88.5t-3.5 -118l-17 -108q-33 -181 -213 -258 q171 -104 135 -320l-18 -108q-10 -56 -25.5 -101t-45.5 -90.5t-71 -76t-105.5 -49.5t-145.5 -19q-41 0 -79 5t-77.5 17t-71 31.5t-59.5 48.5t-42.5 68.5t-20 91zM239.5 248q6.5 -36 32 -56.5t52 -28t59.5 -7.5q86 0 123 43.5t51 124.5l21 112q16 92 -17 142.5t-102 78.5 l-37 15q-78 -29 -113 -78t-49 -133l-20 -119q-7 -58 -0.5 -94zM370 977.5q0 -18.5 2 -32t8.5 -27t11 -22t16 -18.5t17.5 -15t20.5 -13t19.5 -11t20 -10l33 -14q67 30 96 75.5t41 113.5l23 126q9 41 3 70t-17.5 48t-31.5 30t-39.5 15.5t-41.5 4.5q-42 0 -72.5 -14.5t-47 -42 t-25 -53t-13.5 -60.5l-20 -112q-3 -20 -3 -38.5z" />
<glyph unicode="9" horiz-adv-x="845" d="M25 203.5q-6 46.5 6 105.5l8 45l215 43l-14 -75q-5 -42 -5.5 -73t9.5 -52t20 -33.5t27.5 -19.5t31.5 -9t31 -2q39 0 67.5 12.5t46.5 31t32.5 56.5t22 71.5t18.5 94.5l37 209q-74 -86 -195 -86q-37 0 -71 7.5t-69.5 24.5t-61 45t-44.5 69.5t-22 97.5t8 129l33 180 q7 41 14.5 73t22 73.5t32.5 72t47 62.5t64.5 52t85.5 33t110 13q39 0 75 -5.5t75.5 -19t70 -36t58.5 -57t41 -82t17.5 -110.5t-11.5 -143l-104 -595q-10 -56 -18 -91.5t-24 -86.5t-34 -83.5t-48 -69t-67 -57.5t-89 -35t-116 -14q-38 0 -73 4.5t-73 15t-68 28t-57 43.5 t-41.5 61.5t-20.5 82zM332 901q-40 -211 110 -211q54 0 95 26.5t75 88.5l43 237q24 133 -14.5 190.5t-112.5 57.5q-43 0 -73.5 -17t-48.5 -52t-27.5 -68.5t-18.5 -85.5z" />
<glyph unicode=":" horiz-adv-x="411" d="M-2 0l47 274h236l-48 -274h-235zM131 750l47 274h236l-47 -274h-236z" />
<glyph unicode=";" horiz-adv-x="432" d="M-20 -190q53 15 86 53t47 117l2 20h-109l47 274h248l-49 -276q-25 -141 -79.5 -203t-156.5 -92zM137 776l47 275h236l-47 -275h-236z" />
<glyph unicode="&#x3c;" horiz-adv-x="1042" d="M238 580l28 176l705 358l-35 -207l-510 -250l422 -249l-33 -187z" />
<glyph unicode="=" horiz-adv-x="847" d="M49 426l29 166h721l-29 -166h-721zM106 756l31 166h719l-29 -166h-721z" />
<glyph unicode="&#x3e;" horiz-adv-x="1042" d="M127 221l35 207l510 250l-422 250l33 186l577 -358l-29 -176z" />
<glyph unicode="?" horiz-adv-x="741" d="M127 1008q-3 82 10 161q12 70 34.5 123.5t63.5 100t108 71.5t157 25q37 0 71.5 -4t71 -14t65 -26.5t55 -41.5t40 -59.5t19.5 -80t-5 -102.5l-14 -88q-16 -96 -56.5 -163t-109.5 -138l-86 -86q-34 -35 -49 -54t-31 -56t-25 -89l-16 -88h-203l19 107q7 48 19 84t33.5 67 t40 51.5t54.5 55.5l80 78q92 89 117 233l16 103q30 141 -110 141q-114 0 -144 -141q-16 -109 -14 -191zM145 0l45 252h230l-45 -252h-230z" />
<glyph unicode="@" horiz-adv-x="1210" d="M47.5 180q-17.5 102 7.5 236l56 317q19 112 45.5 199t72.5 168.5t108 134.5t154 85t209 32q76 0 143 -12.5t130 -41t108 -73.5t77 -110t37.5 -151t-11.5 -196l-47 -272q-33 -188 -92 -270.5t-173 -82.5q-72 0 -116.5 36.5t-50.5 111.5q-24 -69 -77.5 -109.5t-133.5 -40.5 q-76 0 -130.5 48.5t-54.5 156.5q0 39 8.5 76t29.5 75t52.5 67.5t81 50.5t111.5 28l123 14l20 119q19 117 -63 117q-25 0 -43 -8.5t-28.5 -25.5t-16 -32.5t-9.5 -38.5l-10 -65h-166l11 55q8 40 18 71.5t31 66t49 57t73 37t103 14.5q268 0 209 -309l-59 -326 q-13 -70 1.5 -98.5t49.5 -28.5q21 0 38 15.5t29.5 45t21 62t15.5 76.5l53 299q14 91 12 161.5t-25 122.5t-55.5 87.5t-78.5 57t-94.5 31t-104.5 9.5q-67 0 -122.5 -14.5t-96.5 -38.5t-74.5 -62t-56 -77t-40.5 -92t-29 -99t-21 -105l-59 -340q-15 -80 -10 -144t20 -113 t44 -85.5t62 -61t74.5 -39.5t81.5 -21.5t82 -6.5q128 0 252 56l18 -119q-128 -64 -284 -64q-92 0 -171 20.5t-148 66t-111 117t-59.5 173.5zM473 371q0 -99 74 -99q47 0 81.5 40.5t45.5 105.5l26 141l-69 -8q-74 -7 -116 -59t-42 -121z" />
<glyph unicode="A" horiz-adv-x="913" d="M-63 0l546 1454h277l37 -1454h-211v387h-289l-135 -387h-225zM354 553h234v496q0 111 8 215h-6q-25 -103 -64 -215z" />
<glyph unicode="B" horiz-adv-x="903" d="M27 0l256 1454h309q84 0 150.5 -21t113.5 -63q46 -40 65 -108q11 -39 11 -85q0 -34 -6 -71l-8 -51q-36 -257 -244 -305q90 -22 134 -102q28 -51 29 -128q0 -44 -10 -96l-10 -62q-31 -182 -125 -272t-295 -90h-370zM272 162h125q97 0 139.5 51.5t61.5 157.5l12 78 q10 52 10 91q0 55 -20 84q-32 50 -125 50h-113zM389 825h109q95 0 138 56t60 161l11 56q5 33 5 59q0 65 -30 96q-42 43 -125 43h-86z" />
<glyph unicode="C" horiz-adv-x="909" d="M50 256q-3 25 -3 53q0 61 14 135l113 648q14 81 39.5 145.5t72 124t124.5 92.5t182 33q75 0 134 -13t107.5 -42.5t74.5 -77.5q28 -46 38 -116q4 -26 4 -55q0 -49 -12 -108l-18 -100l-230 -47l29 166q7 40 7 73q0 144 -134 144q-52 0 -89 -19t-58 -54.5t-31.5 -69.5 t-18.5 -81l-116 -675q-11 -59 -10 -104q-1 -66 21 -102q38 -62 116 -61q87 0 126 52t56 153l37 205l213 -49l-31 -170q-15 -83 -41 -145t-72.5 -115t-121 -81t-175.5 -28q-72 0 -129.5 15t-106.5 49t-75 89.5t-36 135.5z" />
<glyph unicode="D" horiz-adv-x="966" d="M27 0l256 1454h311q110 0 188 -30.5t129 -98.5q51 -69 61 -177q3 -32 4 -68q0 -86 -18 -195l-61 -357q-27 -157 -71.5 -261t-113 -162.5t-150.5 -81.5t-197 -23h-338zM272 166h109q64 0 106.5 14t79 51.5t61.5 106t44 176.5l65 363q19 107 19 184q0 82 -21 132 q-40 97 -162 97h-104z" />
<glyph unicode="E" d="M27 0l256 1454h606l-31 -176h-391l-78 -440h359l-31 -176h-359l-86 -486h406l-31 -176h-620z" />
<glyph unicode="F" horiz-adv-x="747" d="M27 0l256 1454h606l-31 -176h-391l-78 -442h359l-31 -177h-359l-116 -659h-215z" />
<glyph unicode="G" horiz-adv-x="931" d="M46 261q-1 17 -1 35q0 72 18 163l111 633q33 183 140.5 290t297.5 107q83 0 148 -21t115.5 -69.5t65.5 -126.5q7 -36 7 -79q0 -52 -10 -114l-12 -69l-228 -43l21 129q7 40 7 73q0 62 -24 96q-36 52 -110 52q-83 0 -130.5 -57t-62.5 -146l-116 -678q-13 -87 -13 -143 q0 -61 21 -95q20 -32 45.5 -44.5t62.5 -12.5q95 0 146 71.5t73 201.5l35 192h-200l30 172h404l-137 -778h-156l18 190q-71 -225 -293 -225q-57 0 -102.5 15t-85 49.5t-59.5 91t-26 140.5z" />
<glyph unicode="H" horiz-adv-x="991" d="M27 0l256 1454h215l-109 -625h326l110 625h215l-256 -1454h-215l117 662h-328l-116 -662h-215z" />
<glyph unicode="I" horiz-adv-x="450" d="M27 0l256 1454h215l-256 -1454h-215z" />
<glyph unicode="J" horiz-adv-x="557" d="M-76 2l33 193q52 -19 106 -19q64 0 97 35t45 108l201 1135h212l-206 -1182q-52 -295 -328 -295q-98 0 -160 25z" />
<glyph unicode="K" horiz-adv-x="927" d="M27 0l256 1454h215l-129 -729l462 729h228l-377 -565l131 -889h-223l-90 727l-176 -262l-82 -465h-215z" />
<glyph unicode="L" horiz-adv-x="727" d="M27 0l256 1454h215l-222 -1259h369l-33 -195h-585z" />
<glyph unicode="M" horiz-adv-x="1236" d="M27 0l256 1454h311l-4 -928q-4 -164 -10 -213h8q10 57 63 213l324 928h309l-256 -1454h-190l145 834q6 33 22 119.5t30 159.5t24 118h-8q-39 -133 -78 -244l-348 -987h-193l-2 987q0 129 10 244h-10q-3 -20 -68 -397l-145 -834h-190z" />
<glyph unicode="N" horiz-adv-x="1015" d="M27 0l256 1454h237l144 -848q21 -121 24 -239h4q17 170 47 352l129 735h197l-256 -1454h-219l-150 891q-23 138 -26 239h-6q-21 -202 -35 -282l-150 -848h-196z" />
<glyph unicode="O" horiz-adv-x="950" d="M52 208q-7 39 -7 86q0 58 10 128l117 651q17 98 47.5 170.5t81.5 129.5t130 86.5t185 29.5q75 0 135.5 -15t111 -48.5t78.5 -86.5t38 -129q3 -26 3 -54q0 -56 -13 -124l-115 -651q-18 -98 -48.5 -170.5t-81.5 -129.5t-130.5 -86.5t-185.5 -29.5q-94 0 -165 24t-123 78 t-68 141zM270 381q-7 -41 -7 -75q0 -70 30 -108q45 -58 131 -57q52 0 89.5 19t60.5 54.5t36 74.5t21 92l123 692q8 43 8 77q0 68 -30 106q-44 58 -130 57q-51 0 -89 -18.5t-61 -54.5t-36 -75t-23 -92z" />
<glyph unicode="P" horiz-adv-x="864" d="M27 0l256 1454h315q60 0 111 -9t100 -34t81 -65q30 -40 44 -106q7 -35 7 -76q0 -36 -5 -77l-21 -135q-9 -64 -25.5 -115t-48 -99t-75 -80t-110 -51t-150.5 -19h-160l-104 -588h-215zM375 748h131q48 0 81.5 16t54 49.5t31.5 68.5t21 89l19 110q8 36 8 64q1 13 -1 25 q-6 38 -17.5 62t-35 37.5t-48 19t-56.5 5.5h-92z" />
<glyph unicode="Q" horiz-adv-x="1019" d="M52 208q-7 39 -7 86q0 58 10 128l117 651q17 98 47.5 170.5t81.5 129.5t130 86.5t185 29.5q75 0 135.5 -15t111 -48.5t78.5 -86.5t38 -129q3 -26 3 -54q0 -57 -13 -124l-115 -651q-27 -140 -81.5 -234t-151.5 -141q36 -45 141 -45q49 0 90 10l-33 -186q-43 -12 -88 -12 q-100 0 -171 51.5t-91 142.5q-20 -2 -61 -2q-94 0 -165 24t-123.5 78t-67.5 141zM270 381q-7 -41 -7 -75q0 -69 30 -108q45 -57 131 -57q52 0 89.5 19t60.5 54.5t36 74.5t21 92l123 692q8 43 8 77q0 68 -30 106q-44 57 -130 57q-51 0 -89 -18.5t-61 -54.5t-36 -75t-23 -92z " />
<glyph unicode="R" horiz-adv-x="905" d="M27 0l256 1454h295q90 0 160 -20.5t122 -63t72 -116.5q11 -41 11 -89q0 -39 -7 -84l-18 -104q-41 -255 -236 -326l100 -651h-225l-80 610h-127l-108 -610h-215zM377 760h112q173 0 207 213l19 106q5 33 5 62q0 155 -153 155h-96z" />
<glyph unicode="S" horiz-adv-x="819" d="M18 375l15 98l227 41l-27 -147q-7 -40 -7 -72q0 -64 26 -101q40 -55 113 -55q121 0 151 162l10 68q8 55 10 91q0 6 1 12q0 30 -11 54q-13 30 -31 49t-51 43l-155 107q-97 67 -125 163q-14 50 -14 109q0 53 12 113l14 82q10 48 25 87.5t43.5 79.5t66.5 67.5t97 44.5 t133 18q45 0 84.5 -4.5t78.5 -16.5t69 -31.5t55.5 -49t38.5 -69.5t17 -92q1 -14 1 -29q0 -41 -8 -89l-15 -84l-223 -41l18 109q8 46 8 83q0 142 -126 142q-37 0 -64 -11.5t-43 -34t-24.5 -45.5t-14.5 -55l-14 -73q-6 -31 -7 -59q0 -36 12 -65q20 -51 77 -93l160 -111 q99 -69 129 -157q17 -49 17 -113q0 -51 -11 -113l-19 -104q-11 -68 -37 -123.5t-70 -100.5t-112.5 -69.5t-157.5 -24.5q-86 0 -154 23t-118 70t-69 128q-10 42 -10 90q0 46 9 99z" />
<glyph unicode="T" horiz-adv-x="790" d="M137 1266l35 188h778l-32 -188h-283l-223 -1266h-213l223 1266h-285z" />
<glyph unicode="U" horiz-adv-x="960" d="M78 358l192 1096h215l-196 -1104q-5 -32 -6 -59q-1 -57 25 -91q36 -50 122 -50q87 0 127.5 52t56.5 144l195 1108h213l-199 -1126q-64 -363 -411 -363q-192 -1 -280 101q-63 73 -64 193q0 46 10 99z" />
<glyph unicode="V" horiz-adv-x="860" d="M174 1454h225l-12 -1030q-4 -137 -10 -205h8q27 108 61 205l351 1030h221l-539 -1454h-274z" />
<glyph unicode="W" horiz-adv-x="1265" d="M125 0l86 1454h203l-78 -985q-11 -146 -29 -250h10q39 147 66 242l297 993h235l-57 -993q-2 -38 -18 -242h8q34 155 61 250l269 985h206l-426 -1454h-274l53 944q3 67 25 270h-10q-31 -142 -70 -270l-279 -944h-278z" />
<glyph unicode="X" horiz-adv-x="878" d="M-76 0l422 782l-143 672h225l70 -401q8 -47 8 -148h4q36 104 59 148l203 401h234l-375 -688l143 -766h-223l-72 506q-5 34 -5 92q0 25 1 55h-4q-22 -69 -55 -147l-246 -506h-246z" />
<glyph unicode="Y" horiz-adv-x="839" d="M172 1454h223l64 -514q3 -41 3 -92q0 -31 -1 -66h4q25 84 61 158l242 514h231l-458 -872l-103 -582h-215l103 582z" />
<glyph unicode="Z" horiz-adv-x="772" d="M-51 0l28 172l662 1096h-446l32 186h672l-31 -170l-659 -1098h481l-33 -186h-706z" />
<glyph unicode="[" horiz-adv-x="499" d="M-14 -233l315 1783h365l-29 -155h-178l-258 -1473h178l-29 -155h-364z" />
<glyph unicode="\" horiz-adv-x="1359" d="M264 1556h187l696 -1796h-184z" />
<glyph unicode="]" horiz-adv-x="499" d="M-115 -233l29 155h178l258 1473h-178l29 155h364l-315 -1783h-365z" />
<glyph unicode="^" horiz-adv-x="757" d="M113 915l340 537h186l149 -537h-172l-90 367l-217 -367h-196z" />
<glyph unicode="_" horiz-adv-x="681" d="M-147 -326l22 133h682l-22 -133h-682z" />
<glyph unicode="`" horiz-adv-x="1228" d="M242 1477h221l219 -295h-176z" />
<glyph unicode="a" horiz-adv-x="790" d="M8 242l8 57q20 149 121 225q79 62 219 76l152 14l20 142q5 26 5 48q0 91 -84 91q-56 0 -82 -28t-37 -97l-15 -86h-204l12 88q21 143 104.5 210t229.5 67q48 0 87.5 -6.5t75 -22t59 -40.5t39.5 -62q18 -36 18 -86v-5q0 -48 -9 -108l-82 -471q-27 -164 -27 -248h-192v12 q0 46 12 148q-26 -90 -86 -137.5t-147 -47.5q-107 0 -162 70q-40 51 -40 133q0 30 5 64zM225 258q-3 -22 -3 -39q0 -88 81 -88q114 0 146 164l36 201l-84 -9q-143 -15 -165 -170z" />
<glyph unicode="b" horiz-adv-x="845" d="M20 0l263 1485h204l-104 -594q42 76 95 117t130 41q21 0 41 -3t45 -13.5t44.5 -28t37 -49t26.5 -73.5q9 -39 8 -97v-6q0 -62 -13 -138l-43 -246q-12 -63 -25 -113.5t-38.5 -111t-57.5 -100.5t-82.5 -67.5t-112.5 -27.5q-82 0 -133 45.5t-63 129.5l-47 -150h-175zM287 358 q-9 -52 -9 -91q0 -126 95 -126q48 0 82 33.5t50 78t27 109.5l54 304q9 52 9 92q0 125 -93 125q-125 0 -162 -221z" />
<glyph unicode="c" horiz-adv-x="763" d="M37 342l59 344q32 182 120.5 272.5t236.5 90.5q300 0 299 -240q0 -43 -9 -94l-12 -58l-209 -26l15 78q8 46 8 79q0 41 -13 61q-24 36 -81 36t-91 -47t-51 -146l-63 -362q-7 -41 -7 -73q0 -49 16 -75q26 -44 79 -43q55 0 83 36.5t44 117.5l20 110l201 -34l-18 -97 q-29 -149 -116 -223t-218 -74q-163 1 -244 93q-58 66 -58 178q0 44 9 96z" />
<glyph unicode="d" horiz-adv-x="845" d="M39 189q-2 22 -2 48q0 62 12 140l47 268q15 84 37.5 150t58.5 126.5t92.5 94t129.5 33.5q81 0 127 -42.5t55 -121.5l104 600h207l-262 -1485h-194l24 143q-91 -168 -233 -168q-50 0 -91 21t-73 68.5t-39 124.5zM260 367q-9 -54 -9 -94q1 -54 17 -82q30 -50 82 -50 q61 0 99 58t59 172l51 286q11 55 11 96q0 48 -15 77q-27 53 -84 53q-39 0 -68.5 -19.5t-47 -56.5t-27 -70t-17.5 -80z" />
<glyph unicode="e" d="M39 350l61 348q62 351 363 351q164 0 236 -94q51 -66 51 -167q0 -42 -9 -90q-15 -91 -39 -217h-434l-26 -155q-6 -37 -6 -67q0 -120 100 -120q54 0 84.5 35t44.5 109l14 71l197 -30l-17 -74q-25 -123 -105 -199t-222 -76q-158 0 -242 94q-60 67 -60 183q0 45 9 98z M291 606h225q3 22 23 129q6 35 6 63q0 111 -92 111q-63 0 -94.5 -48t-45.5 -128z" />
<glyph unicode="f" horiz-adv-x="544" d="M59 0l156 874h-119l27 150h119l32 190q23 137 94 210t207 73q61 0 115 -16l-28 -166q-30 10 -64 10q-59 0 -85.5 -31t-37.5 -98l-31 -172h166l-26 -150h-164l-156 -874h-205z" />
<glyph unicode="g" horiz-adv-x="741" d="M-88 -156l2 15q10 72 59.5 122t130.5 74q-88 47 -88 140q0 126 166 178q-106 61 -106 196q0 37 8 80l18 101q13 64 34 113.5t58 93.5t97.5 68t140.5 24q87 0 152 -29q50 172 204 172q44 0 66 -12l-31 -166q-38 14 -82 14q-39 0 -62 -9.5t-40 -33.5q75 -64 75 -175 q0 -38 -9 -81l-19 -98q-13 -64 -34.5 -114t-58.5 -94t-96.5 -67.5t-138.5 -23.5q-56 0 -108 12q-53 -16 -53 -61q0 -28 18 -42.5t59 -27.5l142 -43q114 -37 164 -104q44 -58 44 -145q0 -12 -1 -25l-7 -31q-5 -57 -27.5 -106t-65 -91.5t-116 -67t-169.5 -24.5 q-77 0 -139.5 15t-109.5 45.5t-67 83.5q-14 34 -14 77q0 22 4 47zM109 -139q-1 -11 -1 -22q0 -57 32 -87q39 -35 116 -35q83 0 124 34.5t46 84.5l4 23q1 7 1 14q0 81 -107 115l-144 39q-52 -36 -67 -148zM272 606q-4 -25 -4 -45q0 -45 20 -67q28 -31 74 -31q100 0 125 145 l29 166q8 37 2.5 62t-14 40.5t-24 24t-28 11.5t-26.5 3q-100 0 -125 -143z" />
<glyph unicode="h" horiz-adv-x="843" d="M20 0l263 1485h204l-110 -629q35 91 91.5 142t145.5 51q37 0 68 -9.5t58.5 -30.5t43 -60t15.5 -93q0 -44 -15 -141l-129 -715h-206l122 705q13 67 13 96q0 84 -82 84q-70 0 -106 -65t-60 -202l-111 -618h-205z" />
<glyph unicode="i" horiz-adv-x="419" d="M18 0l181 1024h202l-180 -1024h-203zM211 1186l43 244h215l-43 -244h-215z" />
<glyph unicode="j" horiz-adv-x="421" d="M-178 -393l33 172q24 -8 53 -8q42 0 61 20.5t27 63.5l203 1169h204l-210 -1208q-9 -50 -25.5 -88.5t-45 -71.5t-74 -50.5t-107.5 -17.5q-60 0 -119 19zM211 1186l43 244h215l-43 -244h-215z" />
<glyph unicode="k" horiz-adv-x="819" d="M20 0l263 1485h204l-163 -928l338 467h223l-310 -393l134 -631h-211l-82 500l-135 -189l-56 -311h-205z" />
<glyph unicode="l" horiz-adv-x="425" d="M20 0l263 1485h204l-262 -1485h-205z" />
<glyph unicode="m" horiz-adv-x="1218" d="M18 0l181 1024h194l-26 -154q38 89 89.5 134t135.5 45q66 0 115 -39t61 -129q71 168 217 168q35 0 65.5 -10t58.5 -34t44 -70t16 -110q0 -52 -12 -123l-127 -702h-207l125 707q8 36 8 73q0 105 -77 105q-27 0 -48 -13.5t-34.5 -33t-24.5 -51.5t-17 -58.5t-12 -64.5 l-116 -664h-205l123 700q8 39 8 74q0 111 -80 111q-54 0 -84 -56.5t-51 -181.5l-115 -647h-205z" />
<glyph unicode="n" horiz-adv-x="839" d="M18 0l181 1024h194l-28 -168q42 93 95 143t138 50q34 0 64 -9t61 -31t49.5 -69.5t18.5 -114.5q0 -33 -11 -112l-127 -713h-207l127 727q7 44 7 59q0 99 -84 99q-31 0 -55 -14t-40 -35.5t-29.5 -60t-21.5 -73.5t-18 -90l-109 -612h-205z" />
<glyph unicode="o" horiz-adv-x="794" d="M31 234v10q0 56 10 129l53 301q12 65 28 116t45 101.5t68 83.5t98 53.5t134 20.5q46 0 85.5 -7.5t78.5 -25.5t65.5 -48t46 -74t20.5 -104q0 -5 1 -9q0 -57 -12 -130l-54 -301q-11 -65 -27 -116t-44.5 -101.5t-67 -83.5t-97.5 -53.5t-134 -20.5q-46 0 -86 7.5t-79 25.5 t-65.5 48t-46 74t-20.5 104zM246 330q-8 -42 -7 -75q0 -120 99 -120q65 0 97.5 52.5t49.5 152.5l64 354q8 42 8 75q0 120 -100 120q-67 0 -100 -52.5t-50 -152.5z" />
<glyph unicode="p" horiz-adv-x="845" d="M-51 -399l252 1423h194l-30 -152q44 88 99.5 132.5t137.5 44.5q21 0 41 -3t45.5 -13.5t46 -27.5t38.5 -48.5t27 -72.5q10 -40 10 -98v-6q-1 -63 -15 -139l-43 -246q-11 -63 -24 -114t-38.5 -110.5t-57.5 -100t-83 -68t-113 -27.5q-77 0 -126 41t-62 117l-94 -532h-205z M285 358q-9 -51 -9 -90q0 -50 15 -78q26 -49 76 -49q72 0 109 58.5t54 162.5l54 304q10 55 10 95q0 47 -14 73q-26 49 -78 49q-70 0 -107 -58.5t-57 -162.5z" />
<glyph unicode="q" horiz-adv-x="845" d="M39 189q-2 22 -2 48q0 61 12 140l47 268q15 84 37.5 150t58.5 126.5t92.5 94t129.5 33.5q88 0 137.5 -46t60.5 -131l47 152h168l-252 -1423h-204l98 557q-86 -183 -227 -183q-50 0 -91 21t-73 68.5t-39 124.5zM260 367q-9 -54 -9 -94q0 -53 17 -82q29 -50 82 -50 q61 0 99 58t59 172l51 286q11 55 11 96q0 48 -15 77q-27 53 -84 53q-39 0 -68.5 -19.5t-47 -56.5t-27 -70t-17.5 -80z" />
<glyph unicode="r" horiz-adv-x="569" d="M18 0l181 1024h190l-41 -229q33 113 96 180t156 67q21 0 41 -4l-41 -227q-21 8 -57 8q-98 0 -152 -82q-53 -74 -78 -231l-90 -506h-205z" />
<glyph unicode="s" horiz-adv-x="731" d="M8 154q-5 23 -5 49q0 29 7 63l8 51l213 35l-10 -67q-5 -32 -5 -57q0 -44 16 -67q24 -36 83 -36q85 0 103 102l10 54q3 21 3 38q-1 29 -9 50q-14 34 -72 57l-106 35q-80 29 -118 105q-24 48 -25 110q0 35 8 74l12 67q21 105 95.5 168.5t217.5 63.5q65 0 117.5 -13.5 t96.5 -43.5t62 -86q11 -33 10 -75q0 -29 -5 -61l-8 -49l-209 -29l10 74q3 23 3 43q-1 41 -15 63q-22 32 -68 31q-83 0 -102 -94l-13 -57q-5 -22 -5 -41q0 -73 71 -103l108 -41q106 -41 138 -109q20 -42 19 -99q0 -36 -7 -78l-12 -64q-8 -45 -25.5 -83.5t-52 -76.5t-97 -60 t-147.5 -22q-55 0 -102 10t-88.5 31.5t-67 55.5t-37.5 82z" />
<glyph unicode="t" horiz-adv-x="552" d="M80 874l29 150h118l43 240l217 71l-53 -311h168l-27 -150h-167l-97 -546q-5 -29 -5 -53q0 -39 14 -63q24 -38 88 -38q35 0 51 2l-31 -182q-39 -8 -86 -8q-249 0 -249 235q0 49 11 109l97 544h-121z" />
<glyph unicode="u" horiz-adv-x="839" d="M45 178q0 37 16 135l123 711h211l-129 -727q-6 -35 -6 -59q0 -95 82 -95q45 0 78 36.5t51.5 91t34.5 139.5l110 614h205l-180 -1024h-197l31 166q-42 -95 -93.5 -143t-139.5 -48q-197 0 -197 203z" />
<glyph unicode="v" horiz-adv-x="704" d="M90 1024h211l-6 -651q0 -83 -6 -168h8q6 20 16.5 52.5t19 60.5t17.5 55l223 651h220l-414 -1024h-234z" />
<glyph unicode="w" horiz-adv-x="1099" d="M113 1024h204l-38 -711l-13 -114h6q4 17 9 36.5t12 42t10 35.5l232 711h208l-22 -711q0 -55 -6 -114h4q12 64 26 114l216 711h206l-362 -1024h-225l16 702q1 21 3.5 45t6 51.5t4.5 39.5h-6q-17 -81 -33 -136l-231 -702h-223z" />
<glyph unicode="x" horiz-adv-x="735" d="M-80 0l328 537l-125 487h215l41 -262q10 -88 10 -103h4q5 16 11.5 31.5t20.5 40.5t17 31l127 262h222l-293 -494l137 -530h-213l-51 289q-13 84 -13 102h-4q-6 -17 -49 -102l-153 -289h-232z" />
<glyph unicode="y" horiz-adv-x="722" d="M-115 -401l29 184q30 -12 76 -12q97 0 139 108l47 115l-86 1030h221l13 -653q0 -97 -13 -185h4q17 73 52 181l227 657h219l-481 -1176q-33 -81 -71.5 -134t-84 -80t-89.5 -36.5t-103 -9.5q-65 0 -99 11z" />
<glyph unicode="z" horiz-adv-x="645" d="M-53 0l26 145l478 717h-334l28 162h541l-24 -143l-472 -717h367l-31 -164h-579z" />
<glyph unicode="{" horiz-adv-x="546" d="M61 598l27 150q38 1 66 11.5t45 25.5t29.5 44.5t19 54.5t14.5 70l64 361q10 57 30 101t55 82t93.5 58.5t136.5 20.5h74l-29 -152h-29q-74 0 -105 -38t-44 -107l-57 -328q-13 -73 -32.5 -123t-62 -92t-108.5 -63q58 -22 86 -65.5t27.5 -98t-11.5 -121.5l-57 -328 q-16 -85 12 -116t86 -31h33l-27 -154h-63q-283 0 -230 308l58 319q11 62 13.5 108.5t-25 73.5t-89.5 29z" />
<glyph unicode="|" horiz-adv-x="395" d="M-23 -240l318 1796h174l-317 -1796h-175z" />
<glyph unicode="}" horiz-adv-x="546" d="M-113 -238l29 152h29q74 0 105 38t44 107l58 328q19 113 63 181t139 98q-58 22 -86 65t-27.5 97.5t11.5 121.5l57 328q16 85 -12 116t-86 31h-33l27 154h63q283 0 230 -307l-58 -320q-11 -62 -13.5 -108.5t25 -73.5t89.5 -29l-27 -149q-38 -1 -66 -12t-45 -26 t-29.5 -44.5t-19 -54.5t-14.5 -70l-64 -360q-10 -57 -30 -101t-55 -82.5t-93.5 -59t-136.5 -20.5h-74z" />
<glyph unicode="~" horiz-adv-x="950" d="M100 545q26 116 97 177.5t153 61.5q53 0 98.5 -17.5t70.5 -38.5t58 -38.5t64 -17.5q90 0 127 114l129 -36q-29 -119 -98.5 -181.5t-151.5 -62.5q-54 0 -98.5 17t-69.5 38t-57.5 38t-65.5 17q-94 0 -123 -106z" />
<glyph unicode="&#xa1;" horiz-adv-x="483" d="M-20 -281l221 1055h174l-152 -1055h-243zM197 936l43 252h241l-43 -252h-241z" />
<glyph unicode="&#xa2;" horiz-adv-x="841" d="M47 406l51 280q65 357 381 363l29 168h88l-31 -173q65 -8 115 -30t87 -61t51 -100.5t1 -141.5l-10 -56l-193 -24l11 57q17 102 -5.5 148t-82.5 57l-133 -764q66 8 101 46t50 120l18 108l185 -36l-19 -95q-29 -143 -125.5 -219t-236.5 -78l-31 -170h-88l31 177 q-146 20 -212.5 123t-31.5 301zM229 354q-33 -188 88 -221l134 762q-129 -18 -162 -203z" />
<glyph unicode="&#xa3;" horiz-adv-x="933" d="M-53 150q83 35 135.5 70.5t92.5 90t57.5 132t17.5 188.5v33h-168l22 131h142q-4 94 -4 137q0 265 89 393.5t304 128.5q166 0 245.5 -82.5t61.5 -263.5l-6 -80l-221 -35l12 109q21 188 -109 188q-89 0 -123 -85.5t-34 -276.5v-133h221l-23 -131h-196q-1 -207 -64.5 -315.5 t-205.5 -168.5q77 15 104 15q43 0 107 -14.5t106 -14.5q66 0 108.5 43t55.5 153l196 -36q-15 -178 -110 -267.5t-248 -89.5q-72 0 -169.5 24.5t-160.5 24.5q-82 0 -200 -32z" />
<glyph unicode="&#xa4;" horiz-adv-x="927" d="M43 213l131 125q-31 84 -31 190q0 232 97 383l-82 119l112 88l72 -98q82 53 186 53q115 0 187 -59l114 104l82 -86l-123 -117q35 -89 35 -202q0 -233 -94 -379l80 -119l-111 -90l-71 100q-80 -55 -189 -55q-121 0 -194 68l-119 -115zM330 518q0 -97 34 -143.5t85 -46.5 q52 0 91 40.5t59.5 104.5t30 127t9.5 123q0 98 -35 145t-86 47q-52 0 -91 -41t-59 -105t-29 -127.5t-9 -123.5z" />
<glyph unicode="&#xa5;" horiz-adv-x="823" d="M27 293l22 121h238l18 104h-237l20 123h229l-151 782h225l51 -452q11 -114 13 -174h4q20 54 73 174l211 452h234l-428 -782h227l-22 -123h-236l-18 -104h237l-22 -121h-238l-51 -293h-213l51 293h-237z" />
<glyph unicode="&#xa6;" horiz-adv-x="393" d="M-23 -240l140 785h172l-137 -785h-175zM156 776l139 780h174l-139 -780h-174z" />
<glyph unicode="&#xa7;" horiz-adv-x="751" d="M-23 94l7 39l192 43l-12 -65q-17 -88 16 -124t90 -36q34 0 59 11.5t38.5 33t19 36t10.5 36.5l4 18q3 15 4 28t-3 26t-5.5 22t-10.5 21.5t-11.5 17.5t-16.5 18.5t-16 16t-19 17t-18 15.5l-125 107q-116 91 -112 262l2 10q3 94 57 165t158 108q-47 47 -73.5 117.5 t-12.5 156.5l6 31q8 43 25.5 81t51.5 76t94 60t140 22q45 0 86 -7t83 -25.5t70 -47.5t40.5 -78t1.5 -112l-9 -49l-192 -39l12 74q25 137 -92 137q-95 0 -115 -105l-4 -26q-3 -16 -4 -30t2.5 -27t6 -22.5t11 -21t12.5 -17.5t16 -17t15.5 -14.5t16.5 -14.5l131 -113 q132 -93 125 -256v-6q-3 -88 -55 -168.5t-152 -130.5q53 -49 78.5 -111t5.5 -155l-4 -29q-6 -32 -18 -63t-37.5 -67t-60.5 -62t-91.5 -44t-126.5 -18q-48 0 -90.5 7.5t-85.5 27.5t-71.5 52t-41.5 85.5t-2 122.5zM264 659q0 -46 21 -84.5t75 -82.5l76 -68q48 29 71 80.5 t23 107.5q0 45 -18 82t-35.5 54t-52.5 45l-55 49q-54 -24 -79.5 -74.5t-25.5 -108.5z" />
<glyph unicode="&#xa8;" horiz-adv-x="1228" d="M102 1200l37 217h191l-39 -217h-189zM412 1200l39 217h188l-39 -217h-188z" />
<glyph unicode="&#xa9;" horiz-adv-x="1314" d="M89.5 466q-0.5 84 12.5 187l37 240q9 56 22 108t37.5 113.5t56 113t79.5 100.5t106.5 83t138.5 55t173 21q55 0 106.5 -7t106.5 -23t101.5 -42.5t90 -65t72.5 -90.5t50 -119.5t21.5 -151.5t-12.5 -187l-37 -240q-13 -81 -34.5 -154t-68 -157t-110.5 -143.5t-167 -99.5 t-232 -40q-55 0 -106.5 7t-106.5 23t-101.5 42.5t-90 65t-73 90.5t-50.5 119.5t-21.5 151.5zM202 466q6 -78 24 -137.5t53 -104t74.5 -74.5t89.5 -48t97 -26t97 -8q414 0 500 512l39 233q18 97 12 175t-24 137.5t-53 104t-75 74.5t-89.5 48t-96.5 26t-96 8 q-101 0 -182.5 -31.5t-134 -81t-92 -119.5t-59.5 -136.5t-32 -143.5l-39 -233q-19 -97 -13 -175zM410 631q0 58 7 116t21.5 119.5t40.5 113.5t61.5 94t87.5 65.5t115 23.5q126 0 190 -79.5t52 -235.5l-145 -17q12 106 -12.5 156.5t-86.5 50.5q-43 0 -76.5 -31t-52.5 -76.5 t-31.5 -105t-17 -109t-4.5 -95.5q0 -203 107 -203q26 0 45.5 9.5t32 23t22.5 42.5t15.5 53t13.5 70l149 -20q-30 -162 -88.5 -232.5t-191.5 -70.5q-54 0 -96 14.5t-79.5 50t-58 105t-20.5 168.5z" />
<glyph unicode="&#xaa;" horiz-adv-x="684" d="M131 807q0 124 72.5 191.5t206.5 78.5l118 13l17 100q14 82 -62 82q-38 0 -57 -25.5t-29 -97.5h-190q23 139 90.5 195.5t196.5 56.5q137 0 198 -59t37 -193l-61 -342q-19 -123 -17 -172h-180q-2 27 8 115q-18 -67 -64.5 -100.5t-113.5 -33.5q-77 0 -123.5 45t-46.5 146z M334 825q0 -75 57 -75q34 0 59.5 25.5t34.5 74.5l27 139l-61 -6q-64 -7 -90.5 -54.5t-26.5 -103.5z" />
<glyph unicode="&#xab;" horiz-adv-x="899" d="M47 563l324 426h211l-344 -438l174 -414h-197zM395 563l324 426h211l-344 -438l174 -414h-197z" />
<glyph unicode="&#xac;" horiz-adv-x="1038" d="M190 596l31 176h686l-90 -508h-176l59 332h-510z" />
<glyph unicode="&#xad;" horiz-adv-x="585" d="M57 473l35 193h455l-33 -193h-457z" />
<glyph unicode="&#xae;" horiz-adv-x="1314" d="M89.5 466q-0.5 84 12.5 187l37 240q9 56 22 108t37.5 113.5t56 113t79.5 100.5t106.5 83t138.5 55t173 21q55 0 106.5 -7t106.5 -23t101.5 -42.5t90 -65t72.5 -90.5t50 -119.5t21.5 -151.5t-12.5 -187l-37 -240q-13 -81 -34.5 -154t-68 -157t-110.5 -143.5t-167 -99.5 t-232 -40q-55 0 -106.5 7t-106.5 23t-101.5 42.5t-90 65t-73 90.5t-50.5 119.5t-21.5 151.5zM202 466q6 -78 24 -137.5t53 -104t74.5 -74.5t89.5 -48t97 -26t97 -8q414 0 500 512l39 233q18 97 12 175t-24 137.5t-53 104t-75 74.5t-89.5 48t-96.5 26t-96 8 q-101 0 -182.5 -31.5t-134 -81t-92 -119.5t-59.5 -136.5t-32 -143.5l-39 -233q-19 -97 -13 -175zM410 319l145 830h211q36 0 64.5 -4t60.5 -17t53 -35t35 -61t14 -92q0 -94 -41 -166.5t-129 -99.5l82 -355h-160l-63 336h-66l-59 -336h-147zM637 766h63q71 0 104.5 50 t33.5 124q0 52 -19 74t-69 22h-66z" />
<glyph unicode="&#xaf;" horiz-adv-x="1228" d="M102 1229l27 153h504l-27 -153h-504z" />
<glyph unicode="&#xb0;" horiz-adv-x="649" d="M182 1114q0 59 14.5 116.5t45.5 113t90 90t137 34.5q43 0 79 -9.5t72 -33.5t57 -73.5t21 -120.5q0 -47 -8 -93t-28.5 -94t-52 -84.5t-82.5 -59.5t-115 -23q-42 0 -78 9.5t-72.5 33t-58 73.5t-21.5 121zM336 1118q0 -110 82 -110q39 0 66.5 24.5t40 62.5t17.5 70t5 62 q0 64 -23.5 87t-60.5 23q-39 0 -66.5 -24.5t-39.5 -62.5t-16.5 -70t-4.5 -62z" />
<glyph unicode="&#xb1;" horiz-adv-x="1079" d="M86 0l31 172h723l-31 -172h-723zM186 563l29 166h268l47 275h183l-47 -275h272l-29 -166h-274l-49 -287h-183l50 287h-267z" />
<glyph unicode="&#xb4;" horiz-adv-x="1228" d="M102 1182l220 295h221l-264 -295h-177z" />
<glyph unicode="&#xb5;" horiz-adv-x="854" d="M-51 -401l250 1425h211l-129 -727q-7 -40 -7 -59q0 -95 82 -95q45 0 78 36.5t51.5 91t34.5 139.5l111 614h205l-181 -1024h-196l30 166q-42 -95 -93.5 -143t-139.5 -48q-26 0 -57 7l-68 -383h-182z" />
<glyph unicode="&#xb6;" horiz-adv-x="1187" d="M209 1016q0 64 14 124t52 122.5t97 108t157 75t223 29.5h477l-23 -119h-127l-274 -1561h-133l274 1561h-143l-277 -1561h-133l158 891q-38 0 -80.5 9.5t-90 33.5t-85 60t-62 95t-24.5 132z" />
<glyph unicode="&#xb7;" horiz-adv-x="411" d="M102 586l48 274h235l-47 -274h-236z" />
<glyph unicode="&#xb8;" horiz-adv-x="1228" d="M104 -281l134 25q0 -59 49 -59q36 0 54.5 32t18.5 70q0 57 -45 57q-42 0 -59 -39l-104 27l96 170h129l-68 -102q31 24 82 24q115 0 113 -127q-2 -90 -58 -152.5t-163 -62.5q-82 0 -131 37t-48 100z" />
<glyph unicode="&#xba;" horiz-adv-x="722" d="M168 1006q15 83 31 140.5t41.5 109t59 81.5t82 47t112.5 17q33 0 61 -4t58 -15t53 -29t41.5 -48.5t28 -70t9 -96.5t-13.5 -126q-19 -105 -41 -172.5t-59 -121t-92.5 -78t-135.5 -24.5q-307 0 -235 390zM351 814.5q3 -26.5 12.5 -41t19.5 -18t25 -3.5q49 0 72.5 51 t51.5 209q12 68 15.5 116.5t0.5 75t-12.5 41t-19 18t-24.5 3.5q-50 0 -73.5 -50.5t-51.5 -209.5q-12 -68 -15.5 -116.5t-0.5 -75z" />
<glyph unicode="&#xbb;" horiz-adv-x="901" d="M-12 137l344 438l-174 414h196l168 -426l-323 -426h-211zM336 137l344 438l-174 414h196l168 -426l-323 -426h-211z" />
<glyph unicode="&#xbc;" horiz-adv-x="1136" d="M12 -35l975 1524h154l-973 -1524h-156zM164 1202l22 154h43q44 0 83.5 27.5t54.5 70.5h129l-131 -733h-158l94 508q-37 -27 -100 -27h-37zM539 158l18 116l326 459h176l-82 -452h86l-19 -123h-86l-28 -158h-156l29 158h-264zM680 281h143l70 319z" />
<glyph unicode="&#xbd;" horiz-adv-x="1206" d="M12 -35l975 1524h154l-973 -1524h-156zM164 1202l22 154h43q44 0 83.5 27.5t54.5 70.5h129l-131 -733h-158l94 508q-37 -27 -100 -27h-37zM604 0l17 115q96 72 158.5 125t115.5 108t77.5 104t24.5 95t-15.5 63t-45.5 17q-82 0 -82 -148l-156 21q0 116 64.5 183t179.5 67 q219 0 219 -179q0 -114 -87.5 -219.5t-252.5 -226.5h264l-18 -125h-463z" />
<glyph unicode="&#xbe;" horiz-adv-x="1271" d="M117 857.5q-5 32.5 4 74.5l164 16q-13 -73 2.5 -97t46.5 -24q90 0 90 138q0 38 -11.5 55.5t-47.5 17.5h-41l20 119h39q50 0 73 35.5t23 85.5q0 74 -61 74q-81 0 -84 -127l-156 16q12 229 242 229q221 0 221 -176q0 -79 -40 -132.5t-116 -65.5q103 -16 103 -144 q0 -117 -62.5 -182t-191.5 -65q-24 0 -45.5 2t-47 8.5t-44.5 17t-38 27.5t-28 41t-14 56.5zM147 -35l975 1524h154l-973 -1524h-156zM674 158l18 116l326 459h176l-82 -452h86l-18 -123h-86l-29 -158h-156l29 158h-264zM815 281h143l70 319z" />
<glyph unicode="&#xbf;" horiz-adv-x="741" d="M-52 -75.5q-6 45.5 5 102.5l14 88q16 96 56.5 163t109.5 138l86 86q35 36 49.5 54t30.5 55t25 89l16 88h203l-19 -106q-7 -48 -19 -84t-33.5 -67t-40 -51.5t-54.5 -55.5l-80 -78q-92 -89 -117 -233l-16 -103q-30 -141 110 -141q114 0 144 141q16 109 14 191l211 -21 q3 -83 -10 -162q-12 -70 -34.5 -123.5t-63.5 -99.5t-108 -71t-157 -25q-37 0 -71.5 4t-71 14t-65 26.5t-55 41.5t-40 59.5t-19.5 80zM350 936l45 252h230l-45 -252h-230z" />
<glyph unicode="&#xc0;" horiz-adv-x="913" d="M-63 0l546 1454h277l37 -1454h-211v387h-289l-135 -387h-225zM317 1767h211l193 -223h-182zM354 553h234v496q0 111 8 215h-6q-25 -103 -64 -215z" />
<glyph unicode="&#xc1;" horiz-adv-x="913" d="M-63 0l546 1454h277l37 -1454h-211v387h-289l-135 -387h-225zM354 553h234v496q0 111 8 215h-6q-25 -103 -64 -215zM545 1544l192 223h211l-221 -223h-182z" />
<glyph unicode="&#xc2;" horiz-adv-x="913" d="M-63 0l546 1454h277l37 -1454h-211v387h-289l-135 -387h-225zM354 553h234v496q0 111 8 215h-6q-25 -103 -64 -215zM354 1544l199 223h242l120 -223h-174l-73 142l-123 -142h-191z" />
<glyph unicode="&#xc3;" horiz-adv-x="913" d="M-63 0l546 1454h277l37 -1454h-211v387h-289l-135 -387h-225zM350 1571q13 95 67.5 148t129.5 53q37 0 66 -10t47.5 -24t33.5 -28.5t32 -24.5t36 -10q30 0 50.5 20t23.5 64l125 -28q-12 -95 -67.5 -148t-131.5 -53q-44 0 -78 15t-51 33t-39.5 33t-46.5 15q-28 0 -48 -21 t-26 -63zM354 553h234v496q0 111 8 215h-6q-25 -103 -64 -215z" />
<glyph unicode="&#xc4;" horiz-adv-x="913" d="M-63 0l546 1454h277l37 -1454h-211v387h-289l-135 -387h-225zM354 553h234v496q0 111 8 215h-6q-25 -103 -64 -215zM379 1544l35 197h188l-35 -197h-188zM705 1544l34 197h189l-35 -197h-188z" />
<glyph unicode="&#xc5;" horiz-adv-x="913" d="M-63 0l546 1454h277l37 -1454h-211v387h-289l-135 -387h-225zM354 553h234v496q0 111 8 215h-6q-25 -103 -64 -215zM449 1690q0 100 73 168.5t183 68.5q83 0 132.5 -48.5t49.5 -123.5q0 -101 -73.5 -170t-180.5 -69q-86 0 -135 48.5t-49 125.5zM571 1704q0 -37 21 -59.5 t59 -22.5q49 0 82 34t33 85q0 36 -21.5 59t-58.5 23q-50 0 -82.5 -34.5t-32.5 -84.5z" />
<glyph unicode="&#xc6;" horiz-adv-x="1347" d="M23 0l710 1454h727l-30 -174h-381l-78 -442h350l-33 -176h-348l-86 -488h395l-30 -174h-611l64 360h-264l-168 -360h-217zM481 520h219l134 756z" />
<glyph unicode="&#xc7;" horiz-adv-x="909" d="M61 444l113 648q14 81 39.5 145.5t72 124t124.5 92.5t182 33q75 0 134 -13t107.5 -42.5t75 -77t37 -117t-7.5 -162.5l-18 -100l-230 -47l29 166q37 217 -127 217q-52 0 -89 -19t-58 -54.5t-31.5 -69.5t-18.5 -81l-116 -675q-26 -144 11.5 -205.5t115.5 -61.5q87 0 126 52 t56 153l37 205l213 -49l-31 -170q-12 -64 -29.5 -115t-48 -99t-72 -80t-103 -52.5t-138.5 -22.5l-45 -67q31 24 82 24q114 0 112 -127q-2 -90 -58 -152.5t-163 -62.5q-82 0 -130.5 37t-47.5 100l133 25q0 -59 49 -59q36 0 55 32t19 70q0 57 -45 57q-43 0 -60 -39l-104 27 l82 143q-305 61 -234 469z" />
<glyph unicode="&#xc8;" d="M27 0l256 1454h606l-31 -176h-391l-78 -440h359l-31 -176h-359l-86 -486h406l-31 -176h-620zM264 1767h211l193 -223h-183z" />
<glyph unicode="&#xc9;" d="M27 0l256 1454h606l-31 -176h-391l-78 -440h359l-31 -176h-359l-86 -486h406l-31 -176h-620zM492 1544l192 223h211l-221 -223h-182z" />
<glyph unicode="&#xca;" d="M27 0l256 1454h606l-31 -176h-391l-78 -440h359l-31 -176h-359l-86 -486h406l-31 -176h-620zM301 1544l199 223h241l121 -223h-174l-74 142l-122 -142h-191z" />
<glyph unicode="&#xcb;" d="M27 0l256 1454h606l-31 -176h-391l-78 -440h359l-31 -176h-359l-86 -486h406l-31 -176h-620zM326 1544l34 197h189l-35 -197h-188zM651 1544l35 197h188l-34 -197h-189z" />
<glyph unicode="&#xcc;" horiz-adv-x="450" d="M27 0l256 1454h215l-256 -1454h-215zM143 1767h195l151 -223h-180z" />
<glyph unicode="&#xcd;" horiz-adv-x="450" d="M27 0l256 1454h215l-256 -1454h-215zM319 1544l152 223h195l-166 -223h-181z" />
<glyph unicode="&#xce;" horiz-adv-x="450" d="M27 0l256 1454h215l-256 -1454h-215zM170 1544l156 223h243l76 -223h-162l-43 142l-98 -142h-172z" />
<glyph unicode="&#xcf;" horiz-adv-x="450" d="M27 0l256 1454h215l-256 -1454h-215zM184 1544l35 197h189l-35 -197h-189zM446 1544l37 197h189l-35 -197h-191z" />
<glyph unicode="&#xd0;" horiz-adv-x="966" d="M27 0l120 686h-116l24 141h117l111 627h311q110 0 188 -30.5t129 -98.5t61.5 -176.5t-14.5 -263.5l-61 -357q-27 -157 -71.5 -261t-113 -162.5t-150.5 -81.5t-197 -23h-338zM272 166h109q64 0 106.5 14t79 51.5t61.5 106t44 176.5l65 363q38 219 -2 316t-162 97h-104 l-82 -463h156l-25 -141h-156z" />
<glyph unicode="&#xd1;" horiz-adv-x="1015" d="M27 0l256 1454h237l144 -848q21 -121 24 -239h4q17 170 47 352l129 735h197l-256 -1454h-219l-150 891q-23 138 -26 239h-6q-21 -202 -35 -282l-150 -848h-196zM403 1571q13 95 67.5 148t129.5 53q37 0 66 -10t47.5 -24t33.5 -28.5t32 -24.5t36 -10q30 0 50.5 20t23.5 64 l125 -28q-12 -95 -67.5 -148t-131.5 -53q-44 0 -78 15t-51 33t-39.5 33t-46.5 15q-28 0 -48 -21t-26 -63z" />
<glyph unicode="&#xd2;" horiz-adv-x="950" d="M51.5 208q-15.5 87 3.5 214l117 651q17 98 47.5 170.5t81.5 129.5t130 86.5t185 29.5q75 0 135.5 -15t111 -48.5t78.5 -86.5t38 -129.5t-10 -177.5l-115 -651q-18 -98 -48.5 -170.5t-81.5 -129.5t-130.5 -86.5t-185.5 -29.5q-94 0 -165 24t-123.5 78t-68 141zM270 381 q-22 -125 23 -182.5t131 -57.5q52 0 89.5 19t60.5 54.5t36 74.5t21 92l123 692q23 125 -21.5 182.5t-130.5 57.5q-51 0 -89 -18.5t-61 -54.5t-36 -75t-23 -92zM338 1767h211l192 -223h-182z" />
<glyph unicode="&#xd3;" horiz-adv-x="950" d="M51.5 208q-15.5 87 3.5 214l117 651q17 98 47.5 170.5t81.5 129.5t130 86.5t185 29.5q75 0 135.5 -15t111 -48.5t78.5 -86.5t38 -129.5t-10 -177.5l-115 -651q-18 -98 -48.5 -170.5t-81.5 -129.5t-130.5 -86.5t-185.5 -29.5q-94 0 -165 24t-123.5 78t-68 141zM270 381 q-22 -125 23 -182.5t131 -57.5q52 0 89.5 19t60.5 54.5t36 74.5t21 92l123 692q23 125 -21.5 182.5t-130.5 57.5q-51 0 -89 -18.5t-61 -54.5t-36 -75t-23 -92zM565 1544l193 223h211l-221 -223h-183z" />
<glyph unicode="&#xd4;" horiz-adv-x="950" d="M51.5 208q-15.5 87 3.5 214l117 651q17 98 47.5 170.5t81.5 129.5t130 86.5t185 29.5q75 0 135.5 -15t111 -48.5t78.5 -86.5t38 -129.5t-10 -177.5l-115 -651q-18 -98 -48.5 -170.5t-81.5 -129.5t-130.5 -86.5t-185.5 -29.5q-94 0 -165 24t-123.5 78t-68 141zM270 381 q-22 -125 23 -182.5t131 -57.5q52 0 89.5 19t60.5 54.5t36 74.5t21 92l123 692q23 125 -21.5 182.5t-130.5 57.5q-51 0 -89 -18.5t-61 -54.5t-36 -75t-23 -92zM375 1544l198 223h242l121 -223h-174l-74 142l-123 -142h-190z" />
<glyph unicode="&#xd5;" horiz-adv-x="950" d="M51.5 208q-15.5 87 3.5 214l117 651q17 98 47.5 170.5t81.5 129.5t130 86.5t185 29.5q75 0 135.5 -15t111 -48.5t78.5 -86.5t38 -129.5t-10 -177.5l-115 -651q-18 -98 -48.5 -170.5t-81.5 -129.5t-130.5 -86.5t-185.5 -29.5q-94 0 -165 24t-123.5 78t-68 141zM270 381 q-22 -125 23 -182.5t131 -57.5q52 0 89.5 19t60.5 54.5t36 74.5t21 92l123 692q23 125 -21.5 182.5t-130.5 57.5q-51 0 -89 -18.5t-61 -54.5t-36 -75t-23 -92zM371 1571q13 95 67 148t129 53q37 0 66 -10t47.5 -24t33.5 -28.5t32 -24.5t36 -10q30 0 50.5 20t23.5 64l125 -28 q-12 -95 -67.5 -148t-131.5 -53q-44 0 -78 15t-51 33t-39.5 33t-46.5 15q-28 0 -47.5 -21t-25.5 -63z" />
<glyph unicode="&#xd6;" horiz-adv-x="950" d="M51.5 208q-15.5 87 3.5 214l117 651q17 98 47.5 170.5t81.5 129.5t130 86.5t185 29.5q75 0 135.5 -15t111 -48.5t78.5 -86.5t38 -129.5t-10 -177.5l-115 -651q-18 -98 -48.5 -170.5t-81.5 -129.5t-130.5 -86.5t-185.5 -29.5q-94 0 -165 24t-123.5 78t-68 141zM270 381 q-22 -125 23 -182.5t131 -57.5q52 0 89.5 19t60.5 54.5t36 74.5t21 92l123 692q23 125 -21.5 182.5t-130.5 57.5q-51 0 -89 -18.5t-61 -54.5t-36 -75t-23 -92zM399 1544l35 197h189l-35 -197h-189zM725 1544l35 197h188l-35 -197h-188z" />
<glyph unicode="&#xd7;" horiz-adv-x="1038" d="M139 406l295 270l-196 262l141 119l190 -256l281 256l98 -119l-286 -262l200 -268l-141 -119l-197 262l-286 -262z" />
<glyph unicode="&#xd8;" horiz-adv-x="950" d="M-35 -23l107 164q-46 110 -17 281l117 651q17 98 47.5 170.5t81.5 129.5t130 86.5t185 29.5q182 0 275 -86l80 123l88 -45l-107 -164q50 -112 17 -285l-115 -651q-18 -98 -48.5 -170.5t-81.5 -129.5t-130.5 -86.5t-185.5 -29.5q-183 0 -277 90l-82 -127zM268 264 q19 -123 156 -123q52 0 89.5 19t60.5 54.5t36 74.5t21 92l108 608zM287 473l469 723q-22 117 -154 117q-51 0 -89 -18.5t-61 -54.5t-36 -75t-23 -92z" />
<glyph unicode="&#xd9;" horiz-adv-x="960" d="M78 358l192 1096h215l-196 -1104q-17 -100 19.5 -150t121.5 -50q87 0 127.5 52t56.5 144l195 1108h213l-199 -1126q-64 -363 -411 -363q-193 0 -280.5 101.5t-53.5 291.5zM344 1767h211l193 -223h-183z" />
<glyph unicode="&#xda;" horiz-adv-x="960" d="M78 358l192 1096h215l-196 -1104q-17 -100 19.5 -150t121.5 -50q87 0 127.5 52t56.5 144l195 1108h213l-199 -1126q-64 -363 -411 -363q-193 0 -280.5 101.5t-53.5 291.5zM571 1544l193 223h211l-221 -223h-183z" />
<glyph unicode="&#xdb;" horiz-adv-x="960" d="M78 358l192 1096h215l-196 -1104q-17 -100 19.5 -150t121.5 -50q87 0 127.5 52t56.5 144l195 1108h213l-199 -1126q-64 -363 -411 -363q-193 0 -280.5 101.5t-53.5 291.5zM381 1544l199 223h241l121 -223h-174l-74 142l-123 -142h-190z" />
<glyph unicode="&#xdc;" horiz-adv-x="960" d="M78 358l192 1096h215l-196 -1104q-17 -100 19.5 -150t121.5 -50q87 0 127.5 52t56.5 144l195 1108h213l-199 -1126q-64 -363 -411 -363q-193 0 -280.5 101.5t-53.5 291.5zM406 1544l34 197h189l-35 -197h-188zM731 1544l35 197h188l-34 -197h-189z" />
<glyph unicode="&#xdd;" horiz-adv-x="839" d="M172 1454h223l64 -514q5 -65 2 -158h4q25 84 61 158l242 514h231l-458 -872l-103 -582h-215l103 582zM510 1544l192 223h211l-221 -223h-182z" />
<glyph unicode="&#xde;" horiz-adv-x="849" d="M27 0l256 1454h215l-52 -289h107q180 0 265 -90.5t56 -267.5l-16 -107q-29 -185 -125 -269.5t-280 -84.5h-150l-61 -346h-215zM332 512h106q87 0 132 40.5t63 145.5l18 101q18 108 -17.5 158.5t-123.5 50.5h-90z" />
<glyph unicode="&#xdf;" horiz-adv-x="835" d="M8 0l205 1169q30 172 120.5 256t266.5 84q151 0 223 -80.5t47 -228.5l-16 -102q-19 -106 -79.5 -176.5t-151.5 -92.5q101 -19 142.5 -103.5t16.5 -227.5l-24 -133q-30 -176 -137.5 -276.5t-258.5 -100.5q-27 0 -81 4l28 160q8 0 24 -1t23 -1q153 0 191 212l24 138 q19 112 -10.5 173.5t-122.5 61.5h-30l26 158h33q139 0 174 197l18 106q13 74 -11 114t-77 40q-70 0 -101.5 -39.5t-47.5 -132.5l-209 -1178h-205z" />
<glyph unicode="&#xe0;" horiz-adv-x="790" d="M8 242l8 57q20 149 121 225q79 62 219 76l152 14l20 142q24 139 -79 139q-56 0 -82 -28t-37 -97l-15 -86h-204l12 88q21 143 104.5 210t229.5 67q48 0 87.5 -6.5t75 -22t59 -40.5t40 -61.5t17 -86t-8.5 -113.5l-82 -471q-27 -164 -27 -248h-192q-2 43 12 160 q-26 -90 -86 -137.5t-147 -47.5q-107 0 -162 70t-35 197zM137 1477h221l220 -295h-177zM225 258q-20 -127 78 -127q114 0 146 164l36 201l-84 -9q-143 -15 -165 -170z" />
<glyph unicode="&#xe1;" horiz-adv-x="790" d="M8 242l8 57q20 149 121 225q79 62 219 76l152 14l20 142q24 139 -79 139q-56 0 -82 -28t-37 -97l-15 -86h-204l12 88q21 143 104.5 210t229.5 67q48 0 87.5 -6.5t75 -22t59 -40.5t40 -61.5t17 -86t-8.5 -113.5l-82 -471q-27 -164 -27 -248h-192q-2 43 12 160 q-26 -90 -86 -137.5t-147 -47.5q-107 0 -162 70t-35 197zM225 258q-20 -127 78 -127q114 0 146 164l36 201l-84 -9q-143 -15 -165 -170zM406 1182l219 295h221l-264 -295h-176z" />
<glyph unicode="&#xe2;" horiz-adv-x="790" d="M8 242l8 57q20 149 121 225q79 62 219 76l152 14l20 142q24 139 -79 139q-56 0 -82 -28t-37 -97l-15 -86h-204l12 88q21 143 104.5 210t229.5 67q48 0 87.5 -6.5t75 -22t59 -40.5t40 -61.5t17 -86t-8.5 -113.5l-82 -471q-27 -164 -27 -248h-192q-2 43 12 160 q-26 -90 -86 -137.5t-147 -47.5q-107 0 -162 70t-35 197zM221 1182l215 295h223l109 -295h-168l-63 198l-134 -198h-182zM225 258q-20 -127 78 -127q114 0 146 164l36 201l-84 -9q-143 -15 -165 -170z" />
<glyph unicode="&#xe3;" horiz-adv-x="790" d="M8 242l8 57q20 149 121 225q79 62 219 76l152 14l20 142q24 139 -79 139q-56 0 -82 -28t-37 -97l-15 -86h-204l12 88q21 143 104.5 210t229.5 67q48 0 87.5 -6.5t75 -22t59 -40.5t40 -61.5t17 -86t-8.5 -113.5l-82 -471q-27 -164 -27 -248h-192q-2 43 12 160 q-26 -90 -86 -137.5t-147 -47.5q-107 0 -162 70t-35 197zM211 1235q15 101 69 157t132 56q43 0 78 -17t53.5 -37.5t41.5 -37.5t44 -17q32 0 50.5 20.5t25.5 72.5l124 -27q-19 -101 -71 -156t-129 -55q-43 0 -77.5 16.5t-52.5 36.5t-41 36.5t-46 16.5q-64 0 -78 -94zM225 258 q-20 -127 78 -127q114 0 146 164l36 201l-84 -9q-143 -15 -165 -170z" />
<glyph unicode="&#xe4;" horiz-adv-x="790" d="M8 242l8 57q20 149 121 225q79 62 219 76l152 14l20 142q24 139 -79 139q-56 0 -82 -28t-37 -97l-15 -86h-204l12 88q21 143 104.5 210t229.5 67q48 0 87.5 -6.5t75 -22t59 -40.5t40 -61.5t17 -86t-8.5 -113.5l-82 -471q-27 -164 -27 -248h-192q-2 43 12 160 q-26 -90 -86 -137.5t-147 -47.5q-107 0 -162 70t-35 197zM225 258q-20 -127 78 -127q114 0 146 164l36 201l-84 -9q-143 -15 -165 -170zM248 1200l37 217h190l-39 -217h-188zM557 1200l39 217h188l-39 -217h-188z" />
<glyph unicode="&#xe5;" horiz-adv-x="790" d="M8 242l8 57q20 149 121 225q79 62 219 76l152 14l20 142q24 139 -79 139q-56 0 -82 -28t-37 -97l-15 -86h-204l12 88q21 143 104.5 210t229.5 67q48 0 87.5 -6.5t75 -22t59 -40.5t40 -61.5t17 -86t-8.5 -113.5l-82 -471q-27 -164 -27 -248h-192q-2 43 12 160 q-26 -90 -86 -137.5t-147 -47.5q-107 0 -162 70t-35 197zM225 258q-20 -127 78 -127q114 0 146 164l36 201l-84 -9q-143 -15 -165 -170zM283 1327q0 96 67 160.5t166 64.5q95 0 150 -52.5t55 -135.5q0 -95 -67 -160t-167 -65q-95 0 -149.5 52t-54.5 136zM410 1327 q0 -36 20 -57t57 -21q58 0 83.5 35.5t25.5 79.5q0 36 -21 57t-59 21q-58 0 -82 -35t-24 -80z" />
<glyph unicode="&#xe6;" horiz-adv-x="1187" d="M8 254l8 45q20 149 121 225q40 31 99.5 51t119.5 25l154 12l20 144q13 74 -11 106.5t-70 32.5q-56 0 -82 -28t-37 -97l-15 -86h-204l12 88q41 277 328 277q159 0 217 -91q76 91 206 91q164 0 236.5 -94t42.5 -257q-15 -91 -39 -217h-434l-27 -155q-31 -187 95 -187 q54 0 84.5 35t44.5 109l14 71l196 -30l-16 -74q-25 -123 -105.5 -199t-222.5 -76q-85 0 -151 33.5t-100 100.5q-90 -134 -256 -134q-129 0 -188.5 70.5t-39.5 208.5zM225 258q-20 -127 78 -127q116 0 148 164l36 199l-86 -7q-143 -13 -165 -170zM702 606h226q6 43 22 129 q29 174 -86 174q-33 0 -58 -14t-40.5 -40.5t-24.5 -55t-16 -66.5z" />
<glyph unicode="&#xe7;" horiz-adv-x="763" d="M37 342l59 344q32 182 120.5 272.5t236.5 90.5q353 0 290 -334l-12 -58l-209 -26l15 78q19 104 -5 140t-81 36t-91 -47t-51 -146l-63 -362q-17 -104 9 -147.5t79 -43.5q55 0 83 36.5t44 117.5l20 110l201 -34l-18 -97q-26 -130 -97 -203.5t-178 -88.5l-53 -80 q31 24 82 24q114 0 112 -127q-2 -90 -58 -152.5t-163 -62.5q-82 0 -130.5 37t-47.5 100l133 25q0 -59 49 -59q36 0 55 32t19 70q0 57 -45 57q-42 0 -59 -39l-105 27l84 148q-131 20 -192 110t-33 252z" />
<glyph unicode="&#xe8;" d="M39 350l61 348q62 351 363 351q164 0 236 -94t42 -257q-15 -91 -39 -217h-434l-26 -155q-31 -187 94 -187q54 0 84.5 35t44.5 109l14 71l197 -30l-17 -74q-25 -123 -105 -199t-222 -76q-158 0 -242 94t-51 281zM145 1477h222l219 -295h-176zM291 606h225q3 22 23 129 q29 174 -86 174q-63 0 -94.5 -48t-45.5 -128z" />
<glyph unicode="&#xe9;" d="M39 350l61 348q62 351 363 351q164 0 236 -94t42 -257q-15 -91 -39 -217h-434l-26 -155q-31 -187 94 -187q54 0 84.5 35t44.5 109l14 71l197 -30l-17 -74q-25 -123 -105 -199t-222 -76q-158 0 -242 94t-51 281zM291 606h225q3 22 23 129q29 174 -86 174q-63 0 -94.5 -48 t-45.5 -128zM414 1182l219 295h221l-264 -295h-176z" />
<glyph unicode="&#xea;" d="M39 350l61 348q62 351 363 351q164 0 236 -94t42 -257q-15 -91 -39 -217h-434l-26 -155q-31 -187 94 -187q54 0 84.5 35t44.5 109l14 71l197 -30l-17 -74q-25 -123 -105 -199t-222 -76q-158 0 -242 94t-51 281zM229 1182l215 295h224l108 -295h-168l-63 198l-133 -198 h-183zM291 606h225q3 22 23 129q29 174 -86 174q-63 0 -94.5 -48t-45.5 -128z" />
<glyph unicode="&#xeb;" d="M39 350l61 348q62 351 363 351q164 0 236 -94t42 -257q-15 -91 -39 -217h-434l-26 -155q-31 -187 94 -187q54 0 84.5 35t44.5 109l14 71l197 -30l-17 -74q-25 -123 -105 -199t-222 -76q-158 0 -242 94t-51 281zM256 1200l37 217h190l-39 -217h-188zM291 606h225 q3 22 23 129q29 174 -86 174q-63 0 -94.5 -48t-45.5 -128zM565 1200l39 217h189l-39 -217h-189z" />
<glyph unicode="&#xec;" horiz-adv-x="419" d="M18 0l181 1024h202l-180 -1024h-203zM39 1477h205l176 -295h-176z" />
<glyph unicode="&#xed;" horiz-adv-x="419" d="M18 0l181 1024h202l-180 -1024h-203zM238 1182l176 295h204l-204 -295h-176z" />
<glyph unicode="&#xee;" horiz-adv-x="419" d="M18 0l181 1024h202l-180 -1024h-203zM88 1182l180 295h224l73 -295h-159l-39 207l-111 -207h-168z" />
<glyph unicode="&#xef;" horiz-adv-x="419" d="M18 0l181 1024h202l-180 -1024h-203zM106 1200l37 217h185l-37 -217h-185zM367 1200l39 217h184l-39 -217h-184z" />
<glyph unicode="&#xf0;" horiz-adv-x="823" d="M45 191.5q-13 76.5 4 185.5l47 262q12 67 25 117t38.5 106t57.5 92t83.5 60t115.5 24q87 0 129 -41.5t55 -119.5h4q16 159 -55 301l-211 -64l-21 100l172 54q-58 70 -129 114l164 111q98 -60 168 -162l146 45l16 -108l-111 -33q90 -220 37 -524l-55 -305 q-12 -72 -28.5 -129t-47.5 -115.5t-71.5 -98t-103 -64t-140.5 -24.5q-74 0 -132 22t-101 70t-56 124.5zM256 377q-22 -134 5.5 -186t90.5 -52q35 0 61.5 14t41.5 32.5t26.5 52t16.5 58t12 64.5q1 9 2 13l47 274q42 230 -98 230q-70 0 -104 -59t-54 -173z" />
<glyph unicode="&#xf1;" horiz-adv-x="839" d="M18 0l181 1024h194l-28 -168q42 93 95 143t138 50q34 0 64 -9t61 -31t49.5 -69.5t18.5 -114.5q0 -33 -11 -112l-127 -713h-207l127 727q7 44 7 59q0 99 -84 99q-31 0 -55 -14t-40 -35.5t-29.5 -60t-21.5 -73.5t-18 -90l-109 -612h-205zM279 1235q15 101 68.5 157 t131.5 56q43 0 78 -17t53.5 -37.5t41.5 -37.5t44 -17q32 0 50.5 20.5t25.5 72.5l125 -27q-19 -101 -71.5 -156t-129.5 -55q-43 0 -77.5 16.5t-52.5 36.5t-41 36.5t-46 16.5q-64 0 -78 -94z" />
<glyph unicode="&#xf2;" horiz-adv-x="794" d="M31 234q-1 60 10 139l53 301q12 65 28 116t45 101.5t68 83.5t98 53.5t134 20.5q46 0 85.5 -7.5t78.5 -25.5t65.5 -48t46 -74t20.5 -104t-11 -139l-54 -301q-11 -65 -27 -116t-44.5 -101.5t-67 -83.5t-97.5 -53.5t-134 -20.5q-46 0 -86 7.5t-79 25.5t-65.5 48t-46 74 t-20.5 104zM158 1477h221l219 -295h-176zM246 330q-35 -195 92 -195q65 0 97.5 52.5t49.5 152.5l64 354q35 195 -92 195q-67 0 -100 -52.5t-50 -152.5z" />
<glyph unicode="&#xf3;" horiz-adv-x="794" d="M31 234q-1 60 10 139l53 301q12 65 28 116t45 101.5t68 83.5t98 53.5t134 20.5q46 0 85.5 -7.5t78.5 -25.5t65.5 -48t46 -74t20.5 -104t-11 -139l-54 -301q-11 -65 -27 -116t-44.5 -101.5t-67 -83.5t-97.5 -53.5t-134 -20.5q-46 0 -86 7.5t-79 25.5t-65.5 48t-46 74 t-20.5 104zM246 330q-35 -195 92 -195q65 0 97.5 52.5t49.5 152.5l64 354q35 195 -92 195q-67 0 -100 -52.5t-50 -152.5zM426 1182l219 295h221l-264 -295h-176z" />
<glyph unicode="&#xf4;" horiz-adv-x="794" d="M31 234q-1 60 10 139l53 301q12 65 28 116t45 101.5t68 83.5t98 53.5t134 20.5q46 0 85.5 -7.5t78.5 -25.5t65.5 -48t46 -74t20.5 -104t-11 -139l-54 -301q-11 -65 -27 -116t-44.5 -101.5t-67 -83.5t-97.5 -53.5t-134 -20.5q-46 0 -86 7.5t-79 25.5t-65.5 48t-46 74 t-20.5 104zM242 1182l215 295h223l108 -295h-167l-64 198l-133 -198h-182zM246 330q-35 -195 92 -195q65 0 97.5 52.5t49.5 152.5l64 354q35 195 -92 195q-67 0 -100 -52.5t-50 -152.5z" />
<glyph unicode="&#xf5;" horiz-adv-x="794" d="M31 234q-1 60 10 139l53 301q12 65 28 116t45 101.5t68 83.5t98 53.5t134 20.5q46 0 85.5 -7.5t78.5 -25.5t65.5 -48t46 -74t20.5 -104t-11 -139l-54 -301q-11 -65 -27 -116t-44.5 -101.5t-67 -83.5t-97.5 -53.5t-134 -20.5q-46 0 -86 7.5t-79 25.5t-65.5 48t-46 74 t-20.5 104zM231 1235q15 101 69 157t132 56q43 0 78 -17t53.5 -37.5t41.5 -37.5t44 -17q32 0 50.5 20.5t25.5 72.5l125 -27q-19 -101 -71.5 -156t-129.5 -55q-43 0 -77.5 16.5t-52.5 36.5t-41 36.5t-46 16.5q-64 0 -78 -94zM246 330q-35 -195 92 -195q65 0 97.5 52.5 t49.5 152.5l64 354q35 195 -92 195q-67 0 -100 -52.5t-50 -152.5z" />
<glyph unicode="&#xf6;" horiz-adv-x="794" d="M31 234q-1 60 10 139l53 301q12 65 28 116t45 101.5t68 83.5t98 53.5t134 20.5q46 0 85.5 -7.5t78.5 -25.5t65.5 -48t46 -74t20.5 -104t-11 -139l-54 -301q-11 -65 -27 -116t-44.5 -101.5t-67 -83.5t-97.5 -53.5t-134 -20.5q-46 0 -86 7.5t-79 25.5t-65.5 48t-46 74 t-20.5 104zM246 330q-35 -195 92 -195q65 0 97.5 52.5t49.5 152.5l64 354q35 195 -92 195q-67 0 -100 -52.5t-50 -152.5zM268 1200l37 217h191l-39 -217h-189zM578 1200l38 217h189l-39 -217h-188z" />
<glyph unicode="&#xf7;" horiz-adv-x="847" d="M78 592l28 166h721l-28 -166h-721zM297 375q0 51 31.5 81.5t81.5 30.5t81 -30t31 -82q0 -50 -31.5 -81.5t-80.5 -31.5q-50 0 -81.5 31t-31.5 82zM383 977q0 49 31.5 81t81.5 32t81 -31t31 -82t-31 -82t-81 -31t-81.5 31t-31.5 82z" />
<glyph unicode="&#xf8;" horiz-adv-x="794" d="M-39 14l90 117q-36 92 -10 242l53 301q12 65 28 116t45 101.5t68 83.5t98 53.5t134 20.5q155 0 229 -82l70 90l65 -49l-88 -115q34 -99 9 -242l-54 -301q-11 -65 -27 -116t-44.5 -101.5t-67 -83.5t-97.5 -53.5t-134 -20.5q-158 0 -232 82l-71 -92zM238 242 q5 -107 100 -107q65 0 97.5 52.5t49.5 152.5l52 287zM258 399l297 385q-5 105 -98 105q-67 0 -100 -52.5t-50 -152.5z" />
<glyph unicode="&#xf9;" horiz-adv-x="839" d="M45 178q0 37 16 135l123 711h211l-129 -727q-6 -35 -6 -59q0 -95 82 -95q45 0 78 36.5t51.5 91t34.5 139.5l110 614h205l-180 -1024h-197l31 166q-42 -95 -93.5 -143t-139.5 -48q-197 0 -197 203zM176 1477h221l219 -295h-176z" />
<glyph unicode="&#xfa;" horiz-adv-x="839" d="M45 178q0 37 16 135l123 711h211l-129 -727q-6 -35 -6 -59q0 -95 82 -95q45 0 78 36.5t51.5 91t34.5 139.5l110 614h205l-180 -1024h-197l31 166q-42 -95 -93.5 -143t-139.5 -48q-197 0 -197 203zM444 1182l220 295h221l-264 -295h-177z" />
<glyph unicode="&#xfb;" horiz-adv-x="839" d="M45 178q0 37 16 135l123 711h211l-129 -727q-6 -35 -6 -59q0 -95 82 -95q45 0 78 36.5t51.5 91t34.5 139.5l110 614h205l-180 -1024h-197l31 166q-42 -95 -93.5 -143t-139.5 -48q-197 0 -197 203zM260 1182l215 295h223l109 -295h-168l-64 198l-133 -198h-182z" />
<glyph unicode="&#xfc;" horiz-adv-x="839" d="M45 178q0 37 16 135l123 711h211l-129 -727q-6 -35 -6 -59q0 -95 82 -95q45 0 78 36.5t51.5 91t34.5 139.5l110 614h205l-180 -1024h-197l31 166q-42 -95 -93.5 -143t-139.5 -48q-197 0 -197 203zM287 1200l37 217h190l-39 -217h-188zM596 1200l39 217h188l-39 -217h-188 z" />
<glyph unicode="&#xfd;" horiz-adv-x="722" d="M-115 -401l29 184q30 -12 76 -12q97 0 139 108l47 115l-86 1030h221l13 -653q0 -97 -13 -185h4q17 73 52 181l227 657h219l-481 -1176q-33 -81 -71.5 -134t-84 -80t-89.5 -36.5t-103 -9.5q-65 0 -99 11zM389 1182l219 295h221l-264 -295h-176z" />
<glyph unicode="&#xfe;" horiz-adv-x="845" d="M-49 -399l69 399l263 1485h206l-100 -565l-2 -7l-4 -22q42 76 95 117t130 41q21 0 41 -3t45 -13.5t44.5 -28t37 -49t26.5 -73t8.5 -103.5t-13.5 -138l-43 -246q-12 -63 -25 -113.5t-38.5 -111t-57.5 -100.5t-82.5 -67.5t-112.5 -27.5q-74 0 -123.5 38t-66.5 108l-92 -520 h-205zM287 358q-39 -217 86 -217q48 0 82 33.5t50 78t27 109.5l54 304q39 217 -84 217q-125 0 -162 -221z" />
<glyph unicode="&#xff;" horiz-adv-x="722" d="M-115 -401l29 184q30 -12 76 -12q97 0 139 108l47 115l-86 1030h221l13 -653q0 -97 -13 -185h4q17 73 52 181l227 657h219l-481 -1176q-33 -81 -71.5 -134t-84 -80t-89.5 -36.5t-103 -9.5q-65 0 -99 11zM231 1200l37 217h191l-39 -217h-189zM541 1200l39 217h188 l-39 -217h-188z" />
<glyph unicode="&#x152;" horiz-adv-x="1177" d="M57.5 372q1.5 61 12.5 136l82 463q11 58 21.5 102t30.5 97t44.5 91.5t63.5 77t87.5 62t116.5 38.5t150 15h624l-30 -176h-392l-77 -440h358l-31 -176h-358l-86 -486h405l-30 -176h-621q-38 1 -74 7t-74 18.5t-69.5 32.5t-61 48.5t-48.5 67t-32 88t-11.5 110.5zM287 483 q-54 -308 170 -317l198 1124q-45 -1 -81 -9.5t-62 -21.5t-47 -36t-34.5 -46t-24.5 -59.5t-18 -68t-15 -78.5z" />
<glyph unicode="&#x153;" horiz-adv-x="1185" d="M30 235.5q-1 59.5 11 137.5l53 301q12 62 26.5 111.5t41.5 101t62.5 85.5t90.5 55.5t123 21.5q148 0 207 -95q85 95 234 95q158 0 230 -94t44 -257q-10 -59 -20.5 -111.5t-20.5 -105.5h-432l-27 -155q-33 -187 92 -187q55 0 86 35t43 109l15 71l196 -30l-14 -74 q-25 -121 -106.5 -198t-214.5 -77q-152 0 -226 95q-76 -95 -219 -95q-42 0 -79 8t-73 26t-61 48t-43 74.5t-19 104zM246 330q-35 -195 73 -195q29 0 50 14t35 43.5t23 63t17 84.5l62 354q33 195 -70 195q-30 0 -52 -14.5t-36.5 -45t-23 -63t-17.5 -82.5zM700 606h226 q13 57 22 129q32 174 -84 174q-110 0 -141 -176z" />
<glyph unicode="&#x178;" horiz-adv-x="839" d="M172 1454h223l64 -514q5 -65 2 -158h4q25 84 61 158l242 514h231l-458 -872l-103 -582h-215l103 582zM344 1544l35 197h188l-35 -197h-188zM670 1544l35 197h188l-35 -197h-188z" />
<glyph unicode="&#x2c6;" horiz-adv-x="1228" d="M106 1182l216 295h223l108 -295h-168l-63 198l-133 -198h-183z" />
<glyph unicode="&#x2dc;" horiz-adv-x="1228" d="M113 1235q15 101 68.5 157t131.5 56q43 0 78 -17t53.5 -37.5t41.5 -37.5t44 -17q32 0 50.5 20.5t25.5 72.5l125 -27q-19 -101 -71.5 -156t-129.5 -55q-43 0 -77.5 16.5t-52.5 36.5t-41 36.5t-46 16.5q-63 0 -77 -94z" />
<glyph unicode="&#x2000;" horiz-adv-x="963" />
<glyph unicode="&#x2001;" horiz-adv-x="1927" />
<glyph unicode="&#x2002;" horiz-adv-x="963" />
<glyph unicode="&#x2003;" horiz-adv-x="1927" />
<glyph unicode="&#x2004;" horiz-adv-x="642" />
<glyph unicode="&#x2005;" horiz-adv-x="481" />
<glyph unicode="&#x2006;" horiz-adv-x="321" />
<glyph unicode="&#x2007;" horiz-adv-x="321" />
<glyph unicode="&#x2008;" horiz-adv-x="240" />
<glyph unicode="&#x2009;" horiz-adv-x="385" />
<glyph unicode="&#x200a;" horiz-adv-x="107" />
<glyph unicode="&#x2010;" horiz-adv-x="585" d="M57 473l35 193h455l-33 -193h-457z" />
<glyph unicode="&#x2011;" horiz-adv-x="585" d="M57 473l35 193h455l-33 -193h-457z" />
<glyph unicode="&#x2012;" horiz-adv-x="585" d="M57 473l35 193h455l-33 -193h-457z" />
<glyph unicode="&#x2013;" horiz-adv-x="821" d="M59 487l29 164h692l-28 -164h-693z" />
<glyph unicode="&#x2014;" horiz-adv-x="1327" d="M59 487l29 164h1200l-28 -164h-1201z" />
<glyph unicode="&#x2018;" horiz-adv-x="417" d="M160 922l49 276q25 141 79 203t156 92l37 -107q-54 -15 -86.5 -52.5t-46.5 -116.5l-2 -21h109l-47 -274h-248z" />
<glyph unicode="&#x2019;" horiz-adv-x="417" d="M174 989q53 15 86 53t47 117l2 21h-108l47 274h248l-50 -276q-25 -141 -79 -203t-156 -92z" />
<glyph unicode="&#x201a;" horiz-adv-x="419" d="M-33 -190q53 15 86 53t47 117l2 20h-108l47 274h248l-49 -276q-25 -141 -79.5 -203t-156.5 -92z" />
<glyph unicode="&#x201c;" horiz-adv-x="751" d="M160 924l49 276q25 141 79 203t156 92l37 -106q-53 -15 -86 -53t-47 -117l-2 -21h109l-47 -274h-248zM494 924l49 276q25 141 79 203t156 92l37 -106q-53 -15 -86 -53t-47 -117l-2 -21h108l-47 -274h-247z" />
<glyph unicode="&#x201d;" horiz-adv-x="751" d="M174 989q53 15 86 53t47 117l2 21h-108l47 274h248l-50 -276q-25 -141 -79 -203t-156 -92zM508 989q53 15 86 53t47 117l2 21h-108l47 274h247l-49 -276q-25 -141 -79 -203t-156 -92z" />
<glyph unicode="&#x201e;" horiz-adv-x="751" d="M-33 -190q53 15 86 53t47 117l2 20h-108l47 274h248l-49 -276q-25 -141 -79.5 -203t-156.5 -92zM301 -190q53 15 86 53t47 117l2 20h-108l47 274h248l-50 -276q-25 -141 -79 -203t-156 -92z" />
<glyph unicode="&#x2022;" horiz-adv-x="579" d="M125 705q0 90 55.5 145t141.5 55q89 0 144.5 -54.5t55.5 -145.5q0 -89 -56 -143t-144 -54q-86 0 -141.5 54.5t-55.5 142.5z" />
<glyph unicode="&#x2026;" horiz-adv-x="1333" d="M-2 0l47 268h236l-48 -268h-235zM459 0l47 268h235l-47 -268h-235zM920 0l47 268h235l-47 -268h-235z" />
<glyph unicode="&#x202f;" horiz-adv-x="385" />
<glyph unicode="&#x2039;" horiz-adv-x="552" d="M47 563l324 426h211l-344 -438l174 -414h-197z" />
<glyph unicode="&#x203a;" horiz-adv-x="552" d="M-10 137l344 438l-174 414h196l168 -426l-323 -426h-211z" />
<glyph unicode="&#x205f;" horiz-adv-x="481" />
<glyph unicode="&#x20ac;" horiz-adv-x="919" d="M12 530l23 117h92l27 154h-93l21 117h92l23 126q12 65 28.5 118.5t49 109.5t77 94t113.5 62t156 24q52 0 101.5 -8.5t100 -31.5t85 -59t51 -96t4.5 -137l-5 -37l-217 -41l9 48q5 42 5 73t-12 52.5t-25 34.5t-32.5 20t-35.5 9.5t-34 2.5q-92 0 -137.5 -59.5t-62.5 -163.5 l-25 -141h320l-23 -117h-317l-27 -154h318l-21 -117h-317l-27 -155q-10 -70 -4 -115t30.5 -71.5t52.5 -37t64 -10.5q45 0 79 17t54.5 46t32 59t17.5 65l14 82l199 -43l-13 -72q-12 -66 -37.5 -121t-70 -102.5t-115 -74t-162.5 -26.5q-52 0 -99.5 9t-94 29.5t-80 54.5 t-58.5 83.5t-29 116.5t9 154l20 112h-94z" />
<glyph unicode="&#x2122;" horiz-adv-x="1243" d="M156 1329l22 125h469l-22 -125h-160l-123 -706h-149l122 706h-159zM559 623l146 831h202l6 -465q2 -61 -6 -155h2q3 11 11 42t16 56t20 57l166 465h207l-145 -831h-127l80 456q7 41 26.5 130t24.5 114h-4q-6 -20 -56 -156l-196 -544h-123l-6 544q-2 82 2 156h-8 q-7 -74 -31 -244l-80 -456h-127z" />
<glyph unicode="&#x25fc;" horiz-adv-x="1024" d="M0 0v1024h1024v-1024h-1024z" />
</font>
</defs>
</svg>
