<?xml version="1.0" standalone="no"?>
<!DOCTYPE svg PUBLIC "-//W3C//DTD SVG 1.1//EN" "http://www.w3.org/Graphics/SVG/1.1/DTD/svg11.dtd" >
<svg xmlns="http://www.w3.org/2000/svg" xmlns:xlink="http://www.w3.org/1999/xlink" version="1.1">
<metadata></metadata>
<defs>
<font id="gt_americacompressed_black" horiz-adv-x="1052" >
<font-face units-per-em="2048" ascent="1638" descent="-410" />
<missing-glyph horiz-adv-x="333" />
<glyph unicode="&#xfb01;" horiz-adv-x="1120" d="M25 807v217h106v133q0 174 86.5 257t269.5 83q62 0 117 -8v-248l-22 2t-17.5 1.5t-13.5 0.5q-51 0 -74.5 -27.5t-23.5 -87.5v-106h151v-217h-151v-807h-322v807h-106zM713 1157v301h321v-301h-321zM719 0v1024h309v-1024h-309z" />
<glyph unicode="&#xfb02;" horiz-adv-x="1136" d="M25 807v217h106v133q0 174 86.5 257t269.5 83q62 0 117 -8v-248l-22 2t-17.5 1.5t-13.5 0.5q-51 0 -74.5 -27.5t-23.5 -87.5v-106h151v-217h-151v-807h-322v807h-106zM721 0v1485h321v-1485h-321z" />
<glyph horiz-adv-x="0" />
<glyph horiz-adv-x="0" />
<glyph horiz-adv-x="682" />
<glyph unicode="&#xd;" horiz-adv-x="0" />
<glyph unicode=" "  horiz-adv-x="333" />
<glyph unicode="&#x09;" horiz-adv-x="333" />
<glyph unicode="&#xa0;" horiz-adv-x="333" />
<glyph unicode="!" horiz-adv-x="563" d="M94 1450h375l-41 -952h-295zM104 0v350h353v-350h-353z" />
<glyph unicode="&#x22;" horiz-adv-x="784" d="M66 1454h294l-28 -604h-238zM424 1454h295l-29 -604h-237z" />
<glyph unicode="#" horiz-adv-x="1120" d="M2 371v219h221l41 244h-180v219h217l59 362h242l-59 -362h151l60 362h243l-61 -362h182v-219h-219l-41 -244h191v-219h-228l-61 -371h-242l62 371h-152l-61 -371h-242l61 371h-184zM465 590h151l41 244h-151z" />
<glyph unicode="$" horiz-adv-x="972" d="M25 362v60l272 72v-84q0 -94 39.5 -145t105.5 -64v409l-141 66q-126 59 -188 145t-62 217v60q0 162 108 252.5t283 101.5v166h101v-166q80 -5 148 -29t124 -68t87.5 -115t31.5 -163v-53l-258 -72v76q0 178 -133 203v-371l127 -61q157 -75 219.5 -155t62.5 -214v-86 q0 -152 -109.5 -254t-299.5 -119v-190h-101v188q-188 11 -302.5 113.5t-114.5 279.5zM328 1055q0 -50 26 -82t88 -64v324q-56 -9 -85 -43.5t-29 -89.5v-45zM543 201q121 23 121 149v45q0 54 -27 92t-94 74v-360z" />
<glyph unicode="%" horiz-adv-x="1415" d="M20 977v194q0 138 84 213.5t230 75.5q143 0 226 -76t83 -215v-194q0 -138 -83.5 -213.5t-227.5 -75.5q-145 0 -228.5 76t-83.5 215zM186 -29l861 1522h196l-854 -1522h-203zM268 975q0 -111 64 -111q63 0 63 111v192q0 113 -63 113q-64 0 -64 -111v-194zM772 268v195 q0 138 83.5 213.5t229.5 75.5q143 0 226.5 -76t83.5 -215v-195q0 -138 -84 -213.5t-228 -75.5q-145 0 -228 76t-83 215zM1020 266q0 -110 63 -110q64 0 64 110v193q0 112 -64 112q-63 0 -63 -110v-195z" />
<glyph unicode="&#x26;" horiz-adv-x="1105" d="M20 332v86q0 114 54 194t170 154l-27 35q-63 85 -89 149.5t-26 139.5v102q0 145 102.5 231t268.5 86q170 0 264 -83t94 -224v-112q0 -175 -202 -310l-43 -30l182 -250q8 54 8 92v176l252 -61v-132q0 -173 -72 -311q36 -24 80 -24q35 0 49 2v-246q-32 -12 -94 -12 q-109 0 -207 79q-137 -98 -297 -98q-211 0 -339 99.5t-128 267.5zM342 381q0 -65 47.5 -110.5t122.5 -45.5q56 0 104 29l-241 332q-33 -46 -33 -127v-78zM399 1098q0 -82 68 -183q70 57 70 177v104q0 111 -68 111q-70 0 -70 -109v-100z" />
<glyph unicode="'" horiz-adv-x="425" d="M66 1454h294l-28 -604h-238z" />
<glyph unicode="(" horiz-adv-x="593" d="M72 672q0 252 75 501.5t211 428.5l258 -89q-241 -363 -241 -845q0 -479 250 -858l-267 -97q-135 192 -210.5 450t-75.5 509z" />
<glyph unicode=")" horiz-adv-x="593" d="M-31 -190q250 379 250 858q0 481 -242 845l259 89q136 -179 211 -428.5t75 -501.5q0 -251 -75.5 -509t-210.5 -450z" />
<glyph unicode="*" horiz-adv-x="724" d="M0 1112l82 248l219 -146l-68 254h261l-68 -251l217 143l82 -248l-266 -16l227 -195l-215 -149l-109 270l-108 -270l-213 149l225 195z" />
<glyph unicode="+" horiz-adv-x="901" d="M66 555v236h262v268h243v-268h265v-236h-265v-289h-243v289h-262z" />
<glyph unicode="," horiz-adv-x="489" d="M66 0v379h358v-352q0 -289 -254 -367l-82 168q68 25 91.5 61.5t23.5 102.5v8h-137z" />
<glyph unicode="-" horiz-adv-x="649" d="M66 420v299h518v-299h-518z" />
<glyph unicode="." horiz-adv-x="448" d="M66 0v379h317v-379h-317z" />
<glyph unicode="/" horiz-adv-x="849" d="M92 -240l375 1796h291l-375 -1796h-291z" />
<glyph unicode="0" horiz-adv-x="989" d="M55 444v535q0 232 117 353.5t322 121.5q207 0 323.5 -121.5t116.5 -353.5v-535q0 -232 -116.5 -353.5t-323.5 -121.5q-205 0 -322 121.5t-117 353.5zM391 393q0 -87 28 -130.5t75 -43.5q48 0 76 43.5t28 130.5v637q0 87 -28 130.5t-76 43.5q-47 0 -75 -43.5t-28 -130.5 v-637z" />
<glyph unicode="1" horiz-adv-x="688" d="M25 911v320h20q99 0 167 50t99 142h262v-1423h-329v958q-62 -47 -193 -47h-26z" />
<glyph unicode="2" horiz-adv-x="921" d="M29 965v96q0 183 114.5 288t313.5 105q218 0 321 -86.5t103 -282.5v-47q0 -98 -34 -192t-110 -211q-49 -75 -116 -153.5t-205 -223.5h467v-258h-846v236q155 172 239 272.5t142 187.5q64 98 90.5 180.5t26.5 182.5v24q0 117 -86 117q-87 0 -87 -129v-145z" />
<glyph unicode="3" horiz-adv-x="911" d="M27 381v63l333 35v-86q0 -96 22 -134t73 -38q88 0 88 152v53q0 100 -28.5 140t-98.5 40h-49v246h49q64 0 91.5 42.5t27.5 135.5v47q0 69 -21 99t-63 30q-46 0 -67.5 -36t-21.5 -117v-109l-333 41v68q0 203 110 302t314 99q417 0 417 -362v-39q0 -124 -55 -209t-166 -107 q116 -15 174 -90.5t58 -200.5v-73q0 -194 -109 -299t-313 -105q-220 0 -326 97t-106 315z" />
<glyph unicode="4" horiz-adv-x="919" d="M4 301v244l385 878h385v-868h141v-254h-141v-301h-321v301h-449zM256 555h201v373q0 84 6 149h-2q-13 -61 -49 -149l-107 -271q-22 -59 -49 -102z" />
<glyph unicode="5" horiz-adv-x="909" d="M29 332v61l331 35v-61q0 -152 93 -152q50 0 71 38.5t21 129.5v166q0 95 -20 133.5t-70 38.5q-83 0 -101 -121l-305 27l43 796h727v-266h-469l-16 -307q32 58 92.5 89.5t140.5 31.5q155 0 234.5 -98t79.5 -285v-201q0 -205 -109 -311.5t-319 -106.5q-198 0 -311 97 t-113 266z" />
<glyph unicode="6" horiz-adv-x="927" d="M39 522v410q0 522 440 522q410 0 410 -336v-39l-330 -39v47q0 130 -84 130q-58 0 -82 -54t-24 -186v-94q67 86 206 86q322 0 322 -381v-185q0 -204 -108 -319t-312 -115q-231 0 -334.5 133.5t-103.5 419.5zM369 432q0 -123 23 -171t77 -48q48 0 72 42t24 138v176 q0 154 -96 154q-66 0 -100 -78v-213z" />
<glyph unicode="7" horiz-adv-x="804" d="M8 1153v270h783v-223q-144 -210 -215.5 -476t-71.5 -562v-162h-340v66q0 305 81.5 582.5t227.5 504.5h-465z" />
<glyph unicode="8" horiz-adv-x="919" d="M27 356v84q0 91 48 160t140 109q-170 92 -170 315v70q0 162 113.5 261t298.5 99q189 0 298 -94t109 -258v-70q0 -93 -36.5 -155t-120.5 -107q97 -48 141.5 -124.5t44.5 -203.5v-84q0 -178 -118 -283.5t-316 -105.5q-201 0 -316.5 103t-115.5 284zM360 338 q0 -129 101 -129q96 0 96 127v139q0 60 -23 85t-96 54l-12 7q-35 -23 -50.5 -56t-15.5 -86v-141zM367 997q0 -52 26 -82t84 -53l15 -6q55 44 55 137v115q0 66 -22 96.5t-68 30.5q-90 0 -90 -123v-115z" />
<glyph unicode="9" horiz-adv-x="923" d="M31 877v153q0 203 107 313.5t315 110.5q232 0 332 -122.5t100 -403.5v-453q0 -268 -108.5 -387t-330.5 -119q-199 0 -304 95.5t-105 261.5v47l328 43v-54q0 -155 90 -155q55 0 77.5 51t22.5 174v141q-65 -71 -203 -71q-157 0 -239 94.5t-82 280.5zM358 899 q0 -73 25.5 -111t71.5 -38q35 0 58.5 16.5t41.5 56.5v213q0 97 -25 141t-75 44q-48 0 -72.5 -40t-24.5 -132v-150z" />
<glyph unicode=":" horiz-adv-x="448" d="M66 0v379h317v-379h-317zM66 647v379h317v-379h-317z" />
<glyph unicode=";" horiz-adv-x="489" d="M66 0v379h358v-352q0 -289 -254 -367l-82 168q68 25 91.5 61.5t23.5 102.5v8h-137zM66 754v379h317v-379h-317z" />
<glyph unicode="&#x3c;" horiz-adv-x="950" d="M88 530v275l678 352v-289l-434 -198l434 -199v-293z" />
<glyph unicode="=" horiz-adv-x="901" d="M66 379v235h770v-235h-770zM66 733v236h770v-236h-770z" />
<glyph unicode="&#x3e;" horiz-adv-x="950" d="M184 178v293l434 199l-434 198v289l678 -352v-275z" />
<glyph unicode="?" horiz-adv-x="860" d="M10 1006v133q0 179 106 274.5t308 95.5q203 0 310.5 -91.5t107.5 -274.5v-56q0 -132 -107 -260l-94 -112q-74 -90 -74 -203v-55h-313v71q0 87 28 149t83 130l81 100q58 71 58 164v64q0 133 -78 133q-44 0 -62 -35.5t-18 -104.5v-149zM254 0v350h313v-350h-313z" />
<glyph unicode="@" horiz-adv-x="1310" d="M51 430v266q0 305 169.5 480.5t453.5 175.5q276 0 431 -158.5t155 -450.5v-268q0 -170 -74 -255t-213 -85q-94 0 -159.5 41.5t-80.5 110.5q-20 -68 -69.5 -106t-118.5 -38q-100 0 -155.5 63.5t-55.5 178.5q0 114 56.5 174t187.5 88l133 29v117q0 69 -49 69q-56 0 -56 -71 v-76h-256v51q2 126 84.5 198t227.5 72q154 0 228.5 -66.5t74.5 -203.5v-375q0 -53 14.5 -76.5t46.5 -23.5q76 0 76 168v266q0 240 -110.5 363.5t-325.5 123.5q-217 0 -333 -132.5t-116 -381.5v-268q0 -223 124.5 -352t338.5 -129q161 0 264 59l47 -125q-59 -37 -145.5 -58.5 t-179.5 -21.5q-291 0 -453 165t-162 462zM596 410q0 -39 14.5 -61.5t40.5 -22.5q29 0 46.5 23.5t17.5 60.5v141l-41 -12q-41 -14 -59.5 -39.5t-18.5 -69.5v-20z" />
<glyph unicode="A" horiz-adv-x="1048" d="M20 0l277 1454h453l278 -1454h-344l-41 299h-240l-41 -299h-342zM436 541h174l-59 436q-2 16 -11 84t-14 115h-6q0 -3 -24 -199z" />
<glyph unicode="B" horiz-adv-x="1017" d="M94 0v1454h449q209 0 315.5 -99t106.5 -268v-47q0 -99 -50 -171t-141 -99q207 -73 207 -330v-43q0 -186 -107.5 -291.5t-316.5 -105.5h-463zM436 227h72q64 0 92.5 44.5t28.5 136.5v51q0 94 -29 137t-92 43h-72v-412zM436 846h60q65 0 91.5 44t26.5 140v47 q0 77 -27 113.5t-91 36.5h-60v-381z" />
<glyph unicode="C" horiz-adv-x="1015" d="M51 422v598q0 229 121.5 349t347.5 120q217 0 334 -104t117 -302v-165l-353 -64v221q0 152 -104 152q-111 0 -111 -180v-637q0 -181 109 -181q53 0 81 41t28 119v229l348 -67v-162q0 -205 -120.5 -314.5t-336.5 -109.5q-227 0 -344 114t-117 343z" />
<glyph unicode="D" horiz-adv-x="1060" d="M94 0v1454h422q237 0 365.5 -123.5t128.5 -351.5v-485q0 -240 -127.5 -367t-368.5 -127h-420zM436 242h72q72 0 110.5 61.5t38.5 169.5v524q0 110 -35.5 162.5t-113.5 52.5h-72v-970z" />
<glyph unicode="E" horiz-adv-x="849" d="M94 0v1454h711v-256h-369v-321h342v-256h-342v-365h383v-256h-725z" />
<glyph unicode="F" horiz-adv-x="815" d="M94 0v1454h711v-258h-369v-324h342v-256h-342v-616h-342z" />
<glyph unicode="G" horiz-adv-x="1040" d="M51 446v543q0 238 123 369t350 131q212 0 329.5 -99t117.5 -284v-115l-350 -61v164q0 147 -103 147q-115 0 -115 -199v-614q0 -203 127 -203q56 0 85.5 41.5t29.5 116.5v174h-131v254h457v-811h-246l-12 221q-22 -118 -102 -187t-208 -69q-173 0 -262.5 123t-89.5 358z " />
<glyph unicode="H" horiz-adv-x="1085" d="M94 0v1454h342v-586h213v586h342v-1454h-342v608h-213v-608h-342z" />
<glyph unicode="I" horiz-adv-x="530" d="M94 0v1454h342v-1454h-342z" />
<glyph unicode="J" horiz-adv-x="614" d="M6 -10v295q50 -6 70 -6q117 0 117 131v1044h339v-1132q0 -345 -378 -345q-75 0 -148 13z" />
<glyph unicode="K" horiz-adv-x="1044" d="M94 0v1454h342v-639l238 639h348l-246 -573l258 -881h-362l-150 600l-86 -192v-408h-342z" />
<glyph unicode="L" horiz-adv-x="800" d="M94 0v1454h342v-1159h350v-295h-692z" />
<glyph unicode="M" horiz-adv-x="1300" d="M94 0v1454h441l92 -612q20 -152 20 -213h8q0 53 21 213l90 612h440v-1454h-288v643q0 268 6 395h-9q-9 -90 -24 -190l-133 -848h-217l-138 848q-21 170 -22 190h-10q8 -127 8 -395v-643h-285z" />
<glyph unicode="N" horiz-adv-x="1099" d="M94 0v1454h361l198 -588q9 -33 29.5 -100t28.5 -100h6q-6 150 -6 299v489h295v-1454h-324l-227 664q-49 152 -64 219h-6q6 -276 6 -285v-598h-297z" />
<glyph unicode="O" d="M51 444v566q0 229 126 354t349 125t349 -125t126 -354v-566q0 -229 -126 -354t-349 -125t-349 125t-126 354zM403 399q0 -84 32 -128t91 -44t91 44t32 128v656q0 84 -32 128t-91 44t-91 -44t-32 -128v-656z" />
<glyph unicode="P" horiz-adv-x="993" d="M94 0v1454h445q218 0 329 -97t113 -288v-119q0 -204 -111 -312t-323 -108h-111v-530h-342zM436 766h66q66 0 95.5 44t29.5 146v105q0 87 -29.5 125.5t-95.5 38.5h-66v-459z" />
<glyph unicode="Q" d="M51 444v566q0 229 126 354t349 125t349 -125t126 -354v-566q0 -157 -60.5 -266t-174.5 -164q46 -20 117 -20q42 0 100 10v-272q-63 -13 -123 -13q-130 0 -220.5 64.5t-127.5 181.5q-217 5 -339 129.5t-122 349.5zM403 399q0 -84 32 -128t91 -44t91 44t32 128v656 q0 84 -32 128t-91 44t-91 -44t-32 -128v-656z" />
<glyph unicode="R" horiz-adv-x="1021" d="M94 0v1454h426q241 0 351 -104t110 -299v-60q0 -237 -164 -329l195 -662h-357l-137 578h-82v-578h-342zM436 786h60q73 0 103 43.5t30 139.5v102q0 86 -29.5 121t-103.5 35h-60v-441z" />
<glyph unicode="S" horiz-adv-x="933" d="M25 371v114l348 66v-182q0 -146 98 -146q49 0 71.5 31.5t22.5 79.5v63q0 55 -18 87.5t-74 66.5l-233 139q-112 66 -157.5 148.5t-45.5 205.5v78q0 75 23 137t63.5 104t96 71t118.5 42t133 13q103 0 181 -20t138 -64t91.5 -120t31.5 -183v-107l-342 -61v176 q0 129 -100 129q-43 0 -67.5 -28.5t-24.5 -71.5v-62q0 -86 92 -141l231 -137q121 -71 166 -148t45 -194v-135q0 -156 -116.5 -256.5t-327.5 -100.5q-207 0 -325.5 111.5t-118.5 294.5z" />
<glyph unicode="T" horiz-adv-x="864" d="M-10 1167v287h884v-287h-272v-1167h-340v1167h-272z" />
<glyph unicode="U" horiz-adv-x="1056" d="M82 373v1081h342v-1069q0 -65 26.5 -99t77.5 -34t79 34.5t28 98.5v1069h340v-1081q0 -192 -116.5 -300t-330.5 -108q-215 0 -330.5 107t-115.5 301z" />
<glyph unicode="V" horiz-adv-x="978" d="M0 1454h352l111 -881q14 -118 22 -278h11q8 160 22 278l111 881h350l-270 -1454h-437z" />
<glyph unicode="W" horiz-adv-x="1359" d="M33 1454h309l57 -815q9 -142 9 -208v-21h10l18 200l92 844h303l93 -844q2 -19 7.5 -88.5t10.5 -111.5h8q0 103 8 229l58 815h311l-164 -1454h-381l-86 733q-6 56 -9 141.5t-3 94.5h-10q-5 -168 -12 -236l-84 -733h-381z" />
<glyph unicode="X" horiz-adv-x="987" d="M12 0l236 768l-219 686h354l78 -330q12 -50 28 -204h5q2 17 5 50t5 51t7 47t11 56l82 330h352l-215 -690l234 -764h-357l-100 428q-17 68 -26 203h-7q-8 -109 -26 -201l-92 -430h-355z" />
<glyph unicode="Y" horiz-adv-x="954" d="M-2 1454h352l101 -463q17 -78 28 -219h6q10 131 27 219l92 463h352l-305 -983v-471h-342v471z" />
<glyph unicode="Z" horiz-adv-x="835" d="M33 0v246l399 925h-385v283h748v-240l-392 -931h414v-283h-784z" />
<glyph unicode="[" horiz-adv-x="567" d="M94 -233v1783h467v-223h-174v-1337h174v-223h-467z" />
<glyph unicode="\" horiz-adv-x="849" d="M92 1556h291l375 -1796h-291z" />
<glyph unicode="]" horiz-adv-x="567" d="M6 -10h174v1337h-174v223h467v-1783h-467v223z" />
<glyph unicode="^" horiz-adv-x="933" d="M41 915l250 539h352l250 -539h-277l-149 347l-150 -347h-276z" />
<glyph unicode="_" horiz-adv-x="770" d="M0 -184h770v-185h-770v185z" />
<glyph unicode="`" horiz-adv-x="1228" d="M66 1477h331l181 -322h-269z" />
<glyph unicode="a" horiz-adv-x="905" d="M31 225v82q0 63 25 117.5t69 89.5q74 59 229 94l154 35v121q0 80 -66 80q-69 0 -69 -84v-94h-320v73q0 151 103 230.5t288 79.5q200 0 292.5 -78t92.5 -248v-502q0 -149 17 -221h-305q-13 98 -13 150q-11 -78 -76.5 -126.5t-160.5 -48.5q-119 0 -189.5 68t-70.5 182z M369 287q0 -97 65 -97q35 0 56.5 26.5t21.5 70.5v188l-61 -16q-82 -21 -82 -137v-35z" />
<glyph unicode="b" horiz-adv-x="974" d="M94 0v1485h322v-594q29 73 88.5 115.5t146.5 42.5q123 0 192.5 -89t69.5 -247v-338q0 -196 -72 -298t-212 -102q-173 0 -223 156l-25 -131h-287zM414 340q0 -135 80 -135q79 0 79 145v328q0 141 -81 141q-78 0 -78 -131v-348z" />
<glyph unicode="c" horiz-adv-x="903" d="M51 371v270q0 199 107 303.5t309 104.5q194 0 294.5 -83.5t100.5 -250.5v-66l-325 -55v104q0 68 -17.5 97.5t-54.5 29.5q-41 0 -58.5 -31t-17.5 -108v-338q0 -81 18 -114t58 -33q38 0 55 31t17 102v119l325 -66v-68q0 -160 -107 -252t-288 -92q-195 0 -305.5 105.5 t-110.5 290.5z" />
<glyph unicode="d" horiz-adv-x="974" d="M61 330v338q0 185 75 283t210 98q166 0 213 -152v588h322v-1485h-308v143q-68 -168 -235 -168q-126 0 -201.5 97t-75.5 258zM401 352q0 -147 80 -147t80 133v348q0 133 -80 133t-80 -141v-326z" />
<glyph unicode="e" horiz-adv-x="921" d="M51 369v270q0 201 106.5 305.5t307.5 104.5q202 0 303.5 -101t101.5 -313v-176h-483v-125q0 -70 20.5 -102.5t63.5 -32.5q39 0 59.5 37.5t20.5 132.5v28l319 -41v-41q0 -165 -108.5 -252.5t-294.5 -87.5q-196 0 -306 104t-110 290zM387 614h148v74q0 104 -17.5 143 t-56.5 39q-38 0 -56 -32.5t-18 -102.5v-121z" />
<glyph unicode="f" horiz-adv-x="626" d="M25 807v217h106v133q0 174 86.5 257t269.5 83q62 0 117 -8v-248l-22 2t-17.5 1.5t-13.5 0.5q-51 0 -74.5 -27.5t-23.5 -87.5v-106h151v-217h-151v-807h-322v807h-106z" />
<glyph unicode="g" horiz-adv-x="854" d="M25 -174q0 64 38 109t109 67q-123 55 -123 186q0 76 43.5 126t118.5 65q-174 74 -174 283v69q0 154 97 236t280 82q84 0 155 -19q42 172 222 172q33 0 51 -4v-227q-47 12 -88 12q-35 0 -68 -10q105 -82 105 -242v-69q0 -154 -97 -236t-280 -82q-61 0 -119 10 q-12 -12 -12 -35q0 -26 19.5 -39t62.5 -18l208 -29q281 -39 281 -284v-41q0 -156 -116.5 -244t-325.5 -88q-179 0 -283 61.5t-104 167.5v21zM283 -80v-39q0 -137 145 -137q69 0 107 25.5t38 72.5v25q0 81 -88 90l-192 20q-10 -27 -10 -57zM338 606q0 -50 20 -77t56 -27 t55.5 27t19.5 77v180q0 51 -19.5 78t-55.5 27t-56 -27.5t-20 -77.5v-180z" />
<glyph unicode="h" horiz-adv-x="972" d="M94 0v1485h322v-617q32 88 96 134.5t152 46.5q116 0 171.5 -72t55.5 -223v-754h-330v702q0 59 -16 86t-51 27q-78 0 -78 -139v-676h-322z" />
<glyph unicode="i" horiz-adv-x="493" d="M86 1157v301h322v-301h-322zM92 0v1024h309v-1024h-309z" />
<glyph unicode="j" horiz-adv-x="507" d="M-41 -145q45 -5 57 -5q42 0 60 24t18 77v1073h322v-1104q0 -87 -15 -146t-51.5 -102t-100.5 -62.5t-161 -19.5q-66 0 -129 13v252zM86 1157v301h322v-301h-322z" />
<glyph unicode="k" horiz-adv-x="960" d="M94 0v1485h322v-893l170 432h344l-195 -377l205 -647h-342l-111 440l-71 -164v-276h-322z" />
<glyph unicode="l" horiz-adv-x="509" d="M94 0v1485h322v-1485h-322z" />
<glyph unicode="m" horiz-adv-x="1406" d="M92 0v1024h311v-156q63 181 236 181q86 0 139 -44.5t76 -136.5q69 181 240 181q231 0 231 -312v-737h-324v709q0 57 -14.5 81.5t-46.5 24.5q-72 0 -72 -131v-684h-321v709q0 55 -15 80.5t-47 25.5q-71 0 -71 -127v-688h-322z" />
<glyph unicode="n" horiz-adv-x="970" d="M92 0v1024h311v-166q60 191 252 191q121 0 177.5 -71.5t56.5 -223.5v-754h-330v702q0 60 -16 86.5t-51 26.5q-78 0 -78 -131v-684h-322z" />
<glyph unicode="o" horiz-adv-x="942" d="M51 369v286q0 189 112 291.5t308 102.5t308 -102.5t112 -291.5v-286q0 -189 -112 -291.5t-308 -102.5t-308 102.5t-112 291.5zM389 332q0 -75 20 -109.5t62 -34.5t62 34.5t20 109.5v360q0 75 -20 109.5t-62 34.5t-62 -34.5t-20 -109.5v-360z" />
<glyph unicode="p" horiz-adv-x="972" d="M92 -399v1423h311v-141q30 80 93.5 123t146.5 43q128 0 198 -89t70 -247v-357q0 -181 -71.5 -281t-200.5 -100q-88 0 -141.5 36t-83.5 112v-522h-322zM412 342q0 -137 80 -137q79 0 79 147v326q0 75 -19 108t-60 33q-42 0 -61 -32t-19 -105v-340z" />
<glyph unicode="q" horiz-adv-x="972" d="M61 315v367q0 182 71.5 274.5t203.5 92.5q89 0 150 -41t83 -115l27 131h285v-1423h-324v538q-36 -83 -91.5 -123.5t-137.5 -40.5q-124 0 -195.5 90.5t-71.5 249.5zM401 352q0 -147 80 -147t80 135v350q0 129 -80 129q-42 0 -61 -33.5t-19 -107.5v-326z" />
<glyph unicode="r" horiz-adv-x="663" d="M92 0v1024h295v-221q18 107 81.5 174t166.5 67q10 0 18 -2v-335q-34 6 -71 6q-83 0 -125 -45q-43 -43 -43 -152v-516h-322z" />
<glyph unicode="s" horiz-adv-x="829" d="M31 225v99l321 43v-109q0 -41 20 -57.5t46 -16.5q59 0 59 60v55q0 77 -61 90l-170 37q-211 46 -211 256v98q0 122 99.5 195.5t275.5 73.5q169 0 271.5 -69.5t102.5 -193.5v-63l-311 -39v96q0 70 -57 70q-58 0 -58 -62v-38q0 -28 3 -45t19.5 -34.5t47.5 -25.5l156 -41 q215 -56 215 -229v-119q0 -122 -104.5 -201.5t-278.5 -79.5q-178 0 -281.5 65t-103.5 185z" />
<glyph unicode="t" horiz-adv-x="653" d="M10 807v217h119v227l322 109v-336h165v-217h-165v-428q0 -55 26 -86t80 -31q26 0 66 4v-266q-68 -14 -170 -14q-169 0 -246.5 75t-77.5 234v512h-119z" />
<glyph unicode="u" horiz-adv-x="974" d="M82 270v754h330v-702q0 -111 71 -111q76 0 76 121v692h324v-1024h-312v156q-65 -181 -245 -181q-129 0 -186.5 74t-57.5 221z" />
<glyph unicode="v" horiz-adv-x="794" d="M-33 1024h334l68 -551q22 -181 24 -205h8q3 40 11 104t12 101l70 551h333l-233 -1024h-393z" />
<glyph unicode="w" horiz-adv-x="1204" d="M-10 1024h315l41 -541q6 -74 10 -194h9q9 131 16 192l72 543h299l69 -543q14 -115 19 -192h6q4 120 10 194l41 541h317l-174 -1024h-350l-72 532q-5 35 -12 209h-10q0 -137 -10 -209l-72 -532h-352z" />
<glyph unicode="x" horiz-adv-x="911" d="M10 0l228 539l-209 485h338l53 -178q30 -96 33 -144h8q3 48 33 144l53 178h332l-209 -483l231 -541h-350l-64 219q-3 13 -10 36.5t-10 35.5t-6 29.5t-4 31.5h-8q-2 -18 -6.5 -37.5t-13.5 -49.5t-13 -46l-64 -219h-342z" />
<glyph unicode="y" horiz-adv-x="794" d="M-33 1024h350l66 -518q12 -87 20 -291h9q6 178 18 287l64 522h333l-237 -1059q-45 -202 -161.5 -290.5t-322.5 -88.5q-58 0 -98 6v258q27 -6 60 -6q67 0 103 23t48 76l8 34z" />
<glyph unicode="z" horiz-adv-x="737" d="M25 0v199l329 598h-307v227h653v-190l-327 -605h348v-229h-696z" />
<glyph unicode="{" horiz-adv-x="610" d="M14 571v207q41 1 68.5 11t43 24t23 41t9.5 51.5t2 67.5v332q0 138 83.5 204t250.5 66h104v-225h-49q-53 0 -75.5 -23.5t-22.5 -93.5v-283q0 -115 -37 -179.5t-144 -94.5q55 -19 91.5 -47t55 -67t25.5 -79.5t7 -95.5v-274q0 -78 22.5 -101.5t77.5 -23.5h55v-230h-104 q-183 0 -260.5 66.5t-77.5 230.5v314q0 39 -2 64.5t-10.5 53.5t-24 44.5t-43.5 27.5t-68 12z" />
<glyph unicode="|" horiz-adv-x="462" d="M94 -240v1796h275v-1796h-275z" />
<glyph unicode="}" horiz-adv-x="610" d="M6 -12h55q55 0 78 23.5t23 101.5v274q0 56 6.5 96t25 79t55 67t91.5 47q-107 30 -143.5 94.5t-36.5 179.5v283q0 70 -23 93.5t-76 23.5h-49v225h105q167 0 250.5 -66t83.5 -204v-332q0 -43 1.5 -67t9.5 -52t23 -41.5t42.5 -23.5t68.5 -11v-207q-50 -1 -80.5 -16 t-44.5 -45.5t-18 -60.5t-4 -80v-314q0 -164 -77.5 -230.5t-260.5 -66.5h-105v230z" />
<glyph unicode="~" horiz-adv-x="950" d="M82 510q23 147 94 217t156 70q45 0 86.5 -18t67 -39.5t57.5 -39.5t61 -18q37 0 63 38t40 93l161 -80q-30 -155 -98.5 -229t-153.5 -74q-38 0 -70.5 11.5t-56 28t-45 33.5t-46.5 28.5t-52 11.5q-37 0 -63 -25.5t-35 -77.5z" />
<glyph unicode="&#xa1;" horiz-adv-x="563" d="M94 -262l39 952h295l41 -952h-375zM104 838v350h353v-350h-353z" />
<glyph unicode="&#xa2;" horiz-adv-x="972" d="M51 393v221q0 198 102.5 309.5t295.5 123.5v170h98v-170q183 -12 284 -114t101 -282v-12l-285 -49v74q0 74 -24 113.5t-76 51.5v-632q52 12 76 50.5t24 110.5v93l285 -64v-31q0 -165 -103.5 -266t-281.5 -113v-202h-98v202q-187 12 -292.5 121.5t-105.5 294.5zM340 379 q0 -158 109 -182v632q-109 -24 -109 -190v-260z" />
<glyph unicode="&#xa3;" horiz-adv-x="1058" d="M-2 233q107 43 157 119.5t50 198.5q0 51 -8 90h-148v168h111q-31 132 -31 233q0 198 110.5 305t317.5 107q417 0 426 -391v-53l-334 -62v109q-6 157 -92 157q-88 0 -88 -143q0 -19 1 -38t2 -33.5t4 -34.5t4.5 -31t6 -32.5t6 -30t7 -32t6.5 -30.5h211v-168h-191 q2 -16 2 -53q0 -112 -49 -195.5t-139 -124.5q60 11 106 11q34 0 82 -8.5t70 -8.5q105 0 117 164l325 -59q-8 -193 -98.5 -295.5t-255.5 -102.5q-70 0 -180.5 23t-181.5 24q-95 0 -226 -32z" />
<glyph unicode="&#xa4;" horiz-adv-x="980" d="M51 221l109 125q-35 68 -35 162v209q0 104 35 182l-109 123l146 133l102 -113q82 43 203 43q110 0 186 -36l103 108l139 -133l-96 -113q40 -79 40 -190v-219q0 -97 -38 -168l94 -111l-139 -133l-99 107q-84 -41 -190 -41q-119 0 -205 47l-100 -115zM403 516 q0 -68 27 -101.5t72 -33.5q43 0 68.5 33.5t25.5 101.5v213q0 68 -25.5 100.5t-68.5 32.5q-45 0 -72 -33.5t-27 -103.5v-209z" />
<glyph unicode="&#xa5;" horiz-adv-x="944" d="M-2 1423h352l80 -399q29 -128 39 -215h6q10 87 39 215l80 399h352l-295 -841h223v-146h-233v-82h233v-145h-233v-209h-338v209h-233v145h233v82h-233v146h223z" />
<glyph unicode="&#xa6;" horiz-adv-x="462" d="M94 -240v811h275v-811h-275zM94 758v798h275v-798h-275z" />
<glyph unicode="&#xa7;" horiz-adv-x="831" d="M25 618v25q0 176 163 250q-75 60 -107 125t-32 145v23q0 129 98.5 203.5t272.5 74.5t270 -75.5t96 -214.5v-25l-262 -72v60q0 123 -92 123q-78 0 -78 -82v-15q0 -36 27.5 -66.5t89.5 -66.5l117 -67q131 -76 177 -138.5t46 -162.5v-19q0 -180 -152 -262 q77 -52 106.5 -104.5t29.5 -133.5v-26q0 -154 -101.5 -235t-281.5 -81q-186 0 -285.5 81t-99.5 212v37l258 74v-43q0 -158 104 -158q38 0 61 20t23 58v18q0 48 -26 79.5t-101 74.5l-115 65q-108 61 -157 132t-49 167zM309 670q0 -60 25.5 -90.5t118.5 -81.5l30 -17 q35 25 35 107q0 64 -26.5 97t-126.5 95q-56 -21 -56 -110z" />
<glyph unicode="&#xa8;" horiz-adv-x="1228" d="M100 1167v269h269v-269h-269zM479 1167v269h266v-269h-266z" />
<glyph unicode="&#xa9;" horiz-adv-x="1277" d="M51 604v248q0 293 163.5 465t430.5 172q262 0 422 -172t160 -465v-248q0 -291 -162 -465t-424 -174t-426 175t-164 464zM193 604q0 -235 124 -375.5t324 -140.5t323 140t123 376v248q0 235 -122.5 374.5t-319.5 139.5q-203 0 -327.5 -138.5t-124.5 -375.5v-248zM346 621 v217q0 156 77 240.5t224 84.5q138 0 214.5 -72t76.5 -202v-53l-195 -33v61q0 135 -98 135q-104 0 -104 -153v-234q0 -155 104 -155q47 0 72.5 34.5t25.5 100.5v61l195 -37v-45q0 -130 -78.5 -204t-216.5 -74q-146 0 -221.5 85.5t-75.5 242.5z" />
<glyph unicode="&#xaa;" horiz-adv-x="770" d="M39 840q0 110 60.5 163t197.5 82l121 25v86q0 37 -41 37q-24 0 -34.5 -20t-10.5 -78h-277q0 134 84 200t238 66q165 0 242 -60t77 -186v-369q0 -101 13 -151h-265q-8 54 -8 104q-7 -56 -60 -89.5t-128 -33.5q-98 0 -153.5 58t-55.5 166zM332 868q0 -73 41 -73q23 0 36 13 t13 34v131l-37 -8q-53 -12 -53 -97z" />
<glyph unicode="&#xab;" horiz-adv-x="1011" d="M8 565l238 422h278l-231 -420l227 -430h-282zM446 565l238 422h279l-232 -420l227 -430h-282z" />
<glyph unicode="&#xac;" horiz-adv-x="950" d="M102 563v240h746v-551h-244v311h-502z" />
<glyph unicode="&#xad;" horiz-adv-x="649" d="M66 420v299h518v-299h-518z" />
<glyph unicode="&#xae;" horiz-adv-x="1277" d="M51 604v248q0 293 163.5 465t430.5 172q262 0 422 -172t160 -465v-248q0 -291 -162 -465t-424 -174t-426 175t-164 464zM193 604q0 -235 124 -375.5t324 -140.5t323 140t123 376v248q0 235 -122.5 374.5t-319.5 139.5q-203 0 -327.5 -138.5t-124.5 -375.5v-248zM401 319 v830h250q281 0 281 -229v-41q0 -149 -125 -203l145 -357h-202l-117 326h-39v-326h-193zM594 782h37q94 0 94 95v49q0 86 -94 86h-37v-230z" />
<glyph unicode="&#xaf;" horiz-adv-x="1228" d="M102 1198v223h658v-223h-658z" />
<glyph unicode="&#xb0;" horiz-adv-x="700" d="M59 1108v55q0 143 77.5 224t213.5 81q135 0 213 -81.5t78 -223.5v-55q0 -141 -78 -223t-213 -82t-213 82t-78 223zM264 1098q0 -121 86 -121q82 0 82 121v73q0 121 -82 121q-86 0 -86 -121v-73z" />
<glyph unicode="&#xb1;" horiz-adv-x="950" d="M86 0v225h778v-225h-778zM86 541v237h264v256h246v-256h268v-237h-268v-256h-246v256h-264z" />
<glyph unicode="&#xb4;" horiz-adv-x="1228" d="M102 1155l181 322h331l-243 -322h-269z" />
<glyph unicode="&#xb5;" horiz-adv-x="985" d="M92 -399v1423h330v-702q0 -111 72 -111q75 0 75 121v692h324v-1024h-311v156q-59 -161 -207 -179v-376h-283z" />
<glyph unicode="&#xb6;" horiz-adv-x="1228" d="M94 1049q0 111 37.5 195.5t103.5 133.5t147 73t177 24h539v-162h-97v-1516h-178v1516h-151v-1516h-178v830q-80 0 -149 23t-126.5 70.5t-91 132t-33.5 196.5z" />
<glyph unicode="&#xb7;" horiz-adv-x="448" d="M66 526v379h317v-379h-317z" />
<glyph unicode="&#xb8;" horiz-adv-x="1228" d="M109 -311l188 49q17 -45 65 -45q60 0 60 63v2q0 29 -15 44.5t-42 15.5q-36 0 -56 -27l-166 31l78 182h195l-56 -102q34 24 97 24q80 0 127 -47t47 -131v-2q0 -90 -71.5 -143.5t-190.5 -53.5q-97 0 -164.5 36.5t-95.5 103.5z" />
<glyph unicode="&#xba;" horiz-adv-x="802" d="M55 909v199q0 139 93 216t253 77t253.5 -77t93.5 -216v-199q0 -139 -93.5 -216t-253.5 -77t-253 77t-93 216zM348 874q0 -81 53 -81q28 0 41 18.5t13 62.5v269q0 44 -13 63t-41 19q-53 0 -53 -82v-269z" />
<glyph unicode="&#xbb;" horiz-adv-x="1011" d="M49 987h279l237 -422l-229 -428h-283l228 430zM487 987h279l238 -422l-230 -428h-282l227 430z" />
<glyph unicode="&#xbc;" horiz-adv-x="1413" d="M31 1155v205h16q134 0 164 94h174v-754h-217v478q-54 -23 -113 -23h-24zM190 -35l742 1524h203l-736 -1524h-209zM809 147v162l233 445h258v-439h91v-168h-91v-147h-210v147h-281zM963 315h127v252z" />
<glyph unicode="&#xbd;" horiz-adv-x="1456" d="M31 1155v205h16q134 0 164 94h174v-754h-217v478q-54 -23 -113 -23h-24zM190 -35l742 1524h203l-736 -1524h-209zM874 551q0 104 75 161.5t212 57.5q256 0 256 -225q0 -115 -80 -209.5t-204 -155.5h284v-180h-536v166q133 87 220 181.5t87 184.5q0 66 -43 66 q-49 0 -49 -70q0 -33 2 -49l-221 31q-3 21 -3 41z" />
<glyph unicode="&#xbe;" horiz-adv-x="1536" d="M23 913l219 27q0 -48 11 -66t40 -18q53 0 53 74q0 41 -20.5 59.5t-67.5 18.5h-14v157h14q44 0 64 19.5t20 60.5q0 58 -45 58q-53 0 -53 -82l-219 32q0 107 69.5 162t204.5 55q128 0 195 -52t67 -152q0 -65 -36 -111t-99 -61q64 -4 102.5 -51t38.5 -119q0 -240 -278 -240 q-135 0 -200.5 56t-65.5 173zM313 -35l742 1524h202l-735 -1524h-209zM932 147v162l233 445h258v-439h90v-168h-90v-147h-211v147h-280zM1085 315h127v252z" />
<glyph unicode="&#xbf;" horiz-adv-x="860" d="M18 45v55q0 132 107 260l94 113q74 90 74 203v55h313v-72q0 -87 -28 -148.5t-82 -129.5l-82 -100q-58 -71 -58 -164v-64q0 -133 78 -133q44 0 62 35t18 104v150l336 -27v-133q0 -179 -106 -275t-308 -96q-203 0 -310.5 92t-107.5 275zM293 838v350h313v-350h-313z" />
<glyph unicode="&#xc0;" horiz-adv-x="1048" d="M20 0l277 1454h453l278 -1454h-344l-41 299h-240l-41 -299h-342zM150 1776h323l191 -236h-285zM436 541h174l-59 436q-2 16 -11 84t-14 115h-6q0 -3 -24 -199z" />
<glyph unicode="&#xc1;" horiz-adv-x="1048" d="M20 0l277 1454h453l278 -1454h-344l-41 299h-240l-41 -299h-342zM381 1540l190 236h324l-229 -236h-285zM436 541h174l-59 436q-2 16 -11 84t-14 115h-6q0 -3 -24 -199z" />
<glyph unicode="&#xc2;" horiz-adv-x="1048" d="M20 0l277 1454h453l278 -1454h-344l-41 299h-240l-41 -299h-342zM170 1540l178 236h350l179 -236h-254l-99 133l-100 -133h-254zM436 541h174l-59 436q-2 16 -11 84t-14 115h-6q0 -3 -24 -199z" />
<glyph unicode="&#xc3;" horiz-adv-x="1048" d="M20 0l277 1454h453l278 -1454h-344l-41 299h-240l-41 -299h-342zM160 1579q7 110 66 170.5t155 60.5q56 0 105.5 -23t86.5 -46t64 -23q56 0 68 84l182 -59q-7 -110 -66 -171t-155 -61q-56 0 -105.5 23.5t-86.5 46.5t-64 23q-56 0 -68 -84zM436 541h174l-59 436 q-2 16 -11 84t-14 115h-6q0 -3 -24 -199z" />
<glyph unicode="&#xc4;" horiz-adv-x="1048" d="M20 0l277 1454h453l278 -1454h-344l-41 299h-240l-41 -299h-342zM203 1540v234h264v-234h-264zM436 541h174l-59 436q-2 16 -11 84t-14 115h-6q0 -3 -24 -199zM580 1540v234h264v-234h-264z" />
<glyph unicode="&#xc5;" horiz-adv-x="1048" d="M20 0l277 1454h453l278 -1454h-344l-41 299h-240l-41 -299h-342zM274 1747q0 105 71 170t179 65t179 -65t71 -170t-71 -170.5t-179 -65.5t-179 65.5t-71 170.5zM428 1747q0 -45 26 -73.5t70 -28.5t70.5 28.5t26.5 73.5t-26.5 74.5t-70.5 29.5q-43 0 -69.5 -29.5 t-26.5 -74.5zM436 541h174l-59 436q-2 16 -11 84t-14 115h-6q0 -3 -24 -199z" />
<glyph unicode="&#xc6;" horiz-adv-x="1429" d="M10 0l461 1454h913v-256h-360v-321h334v-256h-334v-365h375v-256h-717v334h-242l-94 -334h-336zM502 553h180v645z" />
<glyph unicode="&#xc7;" horiz-adv-x="1015" d="M51 422v598q0 229 121.5 349t347.5 120q217 0 334 -104t117 -302v-165l-353 -64v221q0 152 -104 152q-111 0 -111 -180v-637q0 -181 109 -181q53 0 81 41t28 119v229l348 -67v-162q0 -185 -98 -292t-277 -128l-37 -67q34 24 96 24q80 0 127 -47t47 -131v-2 q0 -90 -71.5 -143.5t-190.5 -53.5q-97 0 -164.5 36.5t-95.5 103.5l189 49q17 -45 65 -45q59 0 59 63v2q0 29 -15 44.5t-42 15.5q-35 0 -55 -27l-166 31l63 151q-352 50 -352 449z" />
<glyph unicode="&#xc8;" horiz-adv-x="849" d="M68 1776h323l191 -236h-285zM94 0v1454h711v-256h-369v-321h342v-256h-342v-365h383v-256h-725z" />
<glyph unicode="&#xc9;" horiz-adv-x="849" d="M94 0v1454h711v-256h-369v-321h342v-256h-342v-365h383v-256h-725zM299 1540l190 236h324l-229 -236h-285z" />
<glyph unicode="&#xca;" horiz-adv-x="849" d="M88 1540l178 236h350l179 -236h-254l-99 133l-100 -133h-254zM94 0v1454h711v-256h-369v-321h342v-256h-342v-365h383v-256h-725z" />
<glyph unicode="&#xcb;" horiz-adv-x="849" d="M94 0v1454h711v-256h-369v-321h342v-256h-342v-365h383v-256h-725zM121 1540v234h264v-234h-264zM498 1540v234h264v-234h-264z" />
<glyph unicode="&#xcc;" horiz-adv-x="530" d="M-43 1776h307l144 -236h-285zM94 0v1454h342v-1454h-342z" />
<glyph unicode="&#xcd;" horiz-adv-x="530" d="M94 0v1454h342v-1454h-342zM125 1540l143 236h307l-165 -236h-285z" />
<glyph unicode="&#xce;" horiz-adv-x="530" d="M-35 1540l125 236h350l125 -236h-233l-66 133l-65 -133h-236zM94 0v1454h342v-1454h-342z" />
<glyph unicode="&#xcf;" horiz-adv-x="530" d="M-25 1540v234h261v-234h-261zM94 0v1454h342v-1454h-342zM295 1540v234h262v-234h-262z" />
<glyph unicode="&#xd0;" horiz-adv-x="1060" d="M4 662v178h90v614h422q237 0 365.5 -123.5t128.5 -351.5v-485q0 -240 -127.5 -367t-368.5 -127h-420v662h-90zM436 242h72q72 0 110.5 61.5t38.5 169.5v524q0 110 -35.5 162.5t-113.5 52.5h-72v-372h123v-178h-123v-420z" />
<glyph unicode="&#xd1;" horiz-adv-x="1099" d="M94 0v1454h361l198 -588q9 -33 29.5 -100t28.5 -100h6q-6 150 -6 299v489h295v-1454h-324l-227 664q-49 152 -64 219h-6q6 -276 6 -285v-598h-297zM186 1579q7 109 66.5 170t155.5 61q56 0 105.5 -23t86.5 -46t64 -23q55 0 67 84l182 -59q-7 -110 -66 -171t-155 -61 q-56 0 -105.5 23.5t-86.5 46.5t-64 23q-55 0 -67 -84z" />
<glyph unicode="&#xd2;" d="M51 444v566q0 229 126 354t349 125t349 -125t126 -354v-566q0 -229 -126 -354t-349 -125t-349 125t-126 354zM152 1776h323l191 -236h-285zM403 399q0 -84 32 -128t91 -44t91 44t32 128v656q0 84 -32 128t-91 44t-91 -44t-32 -128v-656z" />
<glyph unicode="&#xd3;" d="M51 444v566q0 229 126 354t349 125t349 -125t126 -354v-566q0 -229 -126 -354t-349 -125t-349 125t-126 354zM383 1540l190 236h324l-229 -236h-285zM403 399q0 -84 32 -128t91 -44t91 44t32 128v656q0 84 -32 128t-91 44t-91 -44t-32 -128v-656z" />
<glyph unicode="&#xd4;" d="M51 444v566q0 229 126 354t349 125t349 -125t126 -354v-566q0 -229 -126 -354t-349 -125t-349 125t-126 354zM172 1540l178 236h350l179 -236h-254l-99 133l-100 -133h-254zM403 399q0 -84 32 -128t91 -44t91 44t32 128v656q0 84 -32 128t-91 44t-91 -44t-32 -128v-656z " />
<glyph unicode="&#xd5;" d="M51 444v566q0 229 126 354t349 125t349 -125t126 -354v-566q0 -229 -126 -354t-349 -125t-349 125t-126 354zM162 1579q7 110 66 170.5t155 60.5q56 0 105.5 -23t86.5 -46t64 -23q56 0 68 84l182 -59q-7 -110 -66 -171t-155 -61q-56 0 -105.5 23.5t-86.5 46.5t-64 23 q-56 0 -68 -84zM403 399q0 -84 32 -128t91 -44t91 44t32 128v656q0 84 -32 128t-91 44t-91 -44t-32 -128v-656z" />
<glyph unicode="&#xd6;" d="M51 444v566q0 229 126 354t349 125t349 -125t126 -354v-566q0 -229 -126 -354t-349 -125t-349 125t-126 354zM205 1540v234h264v-234h-264zM403 399q0 -84 32 -128t91 -44t91 44t32 128v656q0 84 -32 128t-91 44t-91 -44t-32 -128v-656zM582 1540v234h264v-234h-264z" />
<glyph unicode="&#xd7;" horiz-adv-x="950" d="M74 412l239 262l-235 256l168 168l227 -248l227 248l170 -168l-235 -256l239 -260l-167 -168l-234 254l-233 -252z" />
<glyph unicode="&#xd8;" d="M51 444v566q0 229 126 354t349 125q178 0 293 -80l64 125l82 -51l-72 -140q108 -123 108 -333v-566q0 -229 -126 -354t-349 -125q-177 0 -295 80l-65 -129l-80 55l72 142q-107 122 -107 331zM403 383q3 -76 35 -116t88 -40q59 0 91 44t32 128v465zM403 594l246 481 q-5 74 -36.5 113t-86.5 39q-59 0 -91 -44t-32 -128v-461z" />
<glyph unicode="&#xd9;" horiz-adv-x="1056" d="M82 373v1081h342v-1069q0 -65 26.5 -99t77.5 -34t79 34.5t28 98.5v1069h340v-1081q0 -192 -116.5 -300t-330.5 -108q-215 0 -330.5 107t-115.5 301zM154 1776h323l191 -236h-285z" />
<glyph unicode="&#xda;" horiz-adv-x="1056" d="M82 373v1081h342v-1069q0 -65 26.5 -99t77.5 -34t79 34.5t28 98.5v1069h340v-1081q0 -192 -116.5 -300t-330.5 -108q-215 0 -330.5 107t-115.5 301zM385 1540l190 236h324l-229 -236h-285z" />
<glyph unicode="&#xdb;" horiz-adv-x="1056" d="M82 373v1081h342v-1069q0 -65 26.5 -99t77.5 -34t79 34.5t28 98.5v1069h340v-1081q0 -192 -116.5 -300t-330.5 -108q-215 0 -330.5 107t-115.5 301zM174 1540l178 236h350l179 -236h-254l-99 133l-100 -133h-254z" />
<glyph unicode="&#xdc;" horiz-adv-x="1056" d="M82 373v1081h342v-1069q0 -65 26.5 -99t77.5 -34t79 34.5t28 98.5v1069h340v-1081q0 -192 -116.5 -300t-330.5 -108q-215 0 -330.5 107t-115.5 301zM207 1540v234h264v-234h-264zM584 1540v234h264v-234h-264z" />
<glyph unicode="&#xdd;" horiz-adv-x="954" d="M-2 1454h352l101 -463q17 -78 28 -219h6q10 131 27 219l92 463h352l-305 -983v-471h-342v471zM334 1540l190 236h324l-230 -236h-284z" />
<glyph unicode="&#xde;" horiz-adv-x="989" d="M94 0v1454h342v-250h131q197 0 303.5 -97t106.5 -278v-100q0 -196 -108 -306t-302 -110h-131v-313h-342zM436 541h60q68 0 98.5 38t30.5 119v121q0 82 -30.5 120t-98.5 38h-60v-436z" />
<glyph unicode="&#xdf;" horiz-adv-x="962" d="M82 0v1130q0 183 103 281t302 98q192 0 300 -86.5t108 -246.5v-107q0 -98 -54.5 -169t-156.5 -91q238 -34 238 -293v-170q0 -162 -99 -260t-268 -98q-65 0 -100 2v231h30q51 0 80 32.5t29 96.5v176q0 90 -26.5 125t-90.5 35h-24v223h26q46 0 67 36.5t21 111.5v119 q0 110 -80 110q-84 0 -84 -121v-1165h-321z" />
<glyph unicode="&#xe0;" horiz-adv-x="905" d="M31 225v82q0 63 25 117.5t69 89.5q74 59 229 94l154 35v121q0 80 -66 80q-69 0 -69 -84v-94h-320v73q0 151 103 230.5t288 79.5q200 0 292.5 -78t92.5 -248v-502q0 -149 17 -221h-305q-13 98 -13 150q-11 -78 -76.5 -126.5t-160.5 -48.5q-119 0 -189.5 68t-70.5 182z M66 1477h331l181 -322h-269zM369 287q0 -97 65 -97q35 0 56.5 26.5t21.5 70.5v188l-61 -16q-82 -21 -82 -137v-35z" />
<glyph unicode="&#xe1;" horiz-adv-x="905" d="M31 225v82q0 63 25 117.5t69 89.5q74 59 229 94l154 35v121q0 80 -66 80q-69 0 -69 -84v-94h-320v73q0 151 103 230.5t288 79.5q200 0 292.5 -78t92.5 -248v-502q0 -149 17 -221h-305q-13 98 -13 150q-11 -78 -76.5 -126.5t-160.5 -48.5q-119 0 -189.5 68t-70.5 182z M309 1155l180 322h332l-243 -322h-269zM369 287q0 -97 65 -97q35 0 56.5 26.5t21.5 70.5v188l-61 -16q-82 -21 -82 -137v-35z" />
<glyph unicode="&#xe2;" horiz-adv-x="905" d="M31 225v82q0 63 25 117.5t69 89.5q74 59 229 94l154 35v121q0 80 -66 80q-69 0 -69 -84v-94h-320v73q0 151 103 230.5t288 79.5q200 0 292.5 -78t92.5 -248v-502q0 -149 17 -221h-305q-13 98 -13 150q-11 -78 -76.5 -126.5t-160.5 -48.5q-119 0 -189.5 68t-70.5 182z M94 1155l178 322h344l179 -322h-246l-105 205l-104 -205h-246zM369 287q0 -97 65 -97q35 0 56.5 26.5t21.5 70.5v188l-61 -16q-82 -21 -82 -137v-35z" />
<glyph unicode="&#xe3;" horiz-adv-x="905" d="M31 225v82q0 63 25 117.5t69 89.5q74 59 229 94l154 35v121q0 80 -66 80q-69 0 -69 -84v-94h-320v73q0 151 103 230.5t288 79.5q200 0 292.5 -78t92.5 -248v-502q0 -149 17 -221h-305q-13 98 -13 150q-11 -78 -76.5 -126.5t-160.5 -48.5q-119 0 -189.5 68t-70.5 182z M80 1227q9 119 67.5 185.5t155.5 66.5q44 0 85 -17.5t66.5 -38t54.5 -38t50 -17.5q58 0 70 100l182 -59q-9 -119 -67 -185.5t-156 -66.5q-44 0 -85 17.5t-67 38t-54.5 38t-49.5 17.5q-58 0 -70 -101zM369 287q0 -97 65 -97q35 0 56.5 26.5t21.5 70.5v188l-61 -16 q-82 -21 -82 -137v-35z" />
<glyph unicode="&#xe4;" horiz-adv-x="905" d="M31 225v82q0 63 25 117.5t69 89.5q74 59 229 94l154 35v121q0 80 -66 80q-69 0 -69 -84v-94h-320v73q0 151 103 230.5t288 79.5q200 0 292.5 -78t92.5 -248v-502q0 -149 17 -221h-305q-13 98 -13 150q-11 -78 -76.5 -126.5t-160.5 -48.5q-119 0 -189.5 68t-70.5 182z M121 1167v269h268v-269h-268zM369 287q0 -97 65 -97q35 0 56.5 26.5t21.5 70.5v188l-61 -16q-82 -21 -82 -137v-35zM500 1167v269h266v-269h-266z" />
<glyph unicode="&#xe5;" horiz-adv-x="905" d="M31 225v82q0 63 25 117.5t69 89.5q74 59 229 94l154 35v121q0 80 -66 80q-69 0 -69 -84v-94h-320v73q0 151 103 230.5t288 79.5q200 0 292.5 -78t92.5 -248v-502q0 -149 17 -221h-305q-13 98 -13 150q-11 -78 -76.5 -126.5t-160.5 -48.5q-119 0 -189.5 68t-70.5 182z M195 1346q0 105 70.5 170t178.5 65t178 -65t70 -170t-70 -170.5t-178 -65.5t-178.5 65.5t-70.5 170.5zM365 1346q0 -38 21 -62t58 -24q36 0 58 24.5t22 61.5t-22 61.5t-58 24.5q-37 0 -58 -24t-21 -62zM369 287q0 -97 65 -97q35 0 56.5 26.5t21.5 70.5v188l-61 -16 q-82 -21 -82 -137v-35z" />
<glyph unicode="&#xe6;" horiz-adv-x="1374" d="M31 272q0 138 71 210t230 102l184 34v140q0 82 -72 82q-31 0 -51 -20.5t-20 -61.5v-92h-320v61q0 155 104.5 238.5t276.5 83.5q151 0 238 -72q97 72 252 72q197 0 298 -95.5t101 -283.5v-211h-481v-125q0 -135 88 -135q84 0 84 112v84l309 -43v-90q0 -136 -107.5 -211.5 t-289.5 -75.5q-202 0 -303 123q-86 -123 -283 -123q-143 0 -226 75.5t-83 221.5zM360 299q0 -104 74 -104q38 0 60 29.5t22 68.5v178l-55 -16q-53 -16 -77 -44.5t-24 -86.5v-25zM842 614h155v131q0 65 -18 95t-59 30q-78 0 -78 -135v-121z" />
<glyph unicode="&#xe7;" horiz-adv-x="903" d="M51 371v270q0 199 107 303.5t309 104.5q194 0 294.5 -83.5t100.5 -250.5v-66l-325 -55v104q0 68 -17.5 97.5t-54.5 29.5q-41 0 -58.5 -31t-17.5 -108v-338q0 -81 18 -114t58 -33q38 0 55 31t17 102v119l325 -66v-68q0 -136 -78.5 -223.5t-216.5 -111.5l-45 -82 q34 24 96 24q80 0 127.5 -47t47.5 -131v-2q0 -90 -72 -143.5t-191 -53.5q-97 0 -164.5 36.5t-95.5 103.5l189 49q17 -45 65 -45q60 0 60 63v2q0 29 -15.5 44.5t-42.5 15.5q-35 0 -55 -27l-166 31l68 160q-153 25 -237.5 126.5t-84.5 262.5z" />
<glyph unicode="&#xe8;" horiz-adv-x="921" d="M51 369v270q0 201 106.5 305.5t307.5 104.5q202 0 303.5 -101t101.5 -313v-176h-483v-125q0 -70 20.5 -102.5t63.5 -32.5q39 0 59.5 37.5t20.5 132.5v28l319 -41v-41q0 -165 -108.5 -252.5t-294.5 -87.5q-196 0 -306 104t-110 290zM82 1477h332l180 -322h-268zM387 614 h148v74q0 104 -17.5 143t-56.5 39q-38 0 -56 -32.5t-18 -102.5v-121z" />
<glyph unicode="&#xe9;" horiz-adv-x="921" d="M51 369v270q0 201 106.5 305.5t307.5 104.5q202 0 303.5 -101t101.5 -313v-176h-483v-125q0 -70 20.5 -102.5t63.5 -32.5q39 0 59.5 37.5t20.5 132.5v28l319 -41v-41q0 -165 -108.5 -252.5t-294.5 -87.5q-196 0 -306 104t-110 290zM326 1155l180 322h332l-244 -322h-268z M387 614h148v74q0 104 -17.5 143t-56.5 39q-38 0 -56 -32.5t-18 -102.5v-121z" />
<glyph unicode="&#xea;" horiz-adv-x="921" d="M51 369v270q0 201 106.5 305.5t307.5 104.5q202 0 303.5 -101t101.5 -313v-176h-483v-125q0 -70 20.5 -102.5t63.5 -32.5q39 0 59.5 37.5t20.5 132.5v28l319 -41v-41q0 -165 -108.5 -252.5t-294.5 -87.5q-196 0 -306 104t-110 290zM111 1155l178 322h344l178 -322h-246 l-104 205l-105 -205h-245zM387 614h148v74q0 104 -17.5 143t-56.5 39q-38 0 -56 -32.5t-18 -102.5v-121z" />
<glyph unicode="&#xeb;" horiz-adv-x="921" d="M51 369v270q0 201 106.5 305.5t307.5 104.5q202 0 303.5 -101t101.5 -313v-176h-483v-125q0 -70 20.5 -102.5t63.5 -32.5q39 0 59.5 37.5t20.5 132.5v28l319 -41v-41q0 -165 -108.5 -252.5t-294.5 -87.5q-196 0 -306 104t-110 290zM137 1167v269h269v-269h-269zM387 614 h148v74q0 104 -17.5 143t-56.5 39q-38 0 -56 -32.5t-18 -102.5v-121zM516 1167v269h266v-269h-266z" />
<glyph unicode="&#xec;" horiz-adv-x="493" d="M-80 1477h305l152 -322h-266zM92 0v1024h309v-1024h-309z" />
<glyph unicode="&#xed;" horiz-adv-x="493" d="M92 0v1024h309v-1024h-309zM111 1155l151 322h305l-190 -322h-266z" />
<glyph unicode="&#xee;" horiz-adv-x="493" d="M-55 1155l127 322h346l127 -322h-228l-73 219l-72 -219h-227zM92 0v1024h309v-1024h-309z" />
<glyph unicode="&#xef;" horiz-adv-x="493" d="M-39 1167v269h246v-269h-246zM92 0v1024h309v-1024h-309zM283 1167v269h247v-269h-247z" />
<glyph unicode="&#xf0;" horiz-adv-x="929" d="M61 387v217q0 193 77 304.5t214 111.5q160 0 219 -176h4q-13 156 -106 303l-186 -60l-39 125l141 45q-43 50 -104 107l247 137q82 -69 144 -149l139 45l39 -131l-100 -31q124 -227 124 -526v-250q0 -236 -109.5 -361t-303.5 -125q-204 0 -302 103t-98 311zM387 340 q0 -145 82 -145q84 0 84 145v315q0 144 -82 144q-45 0 -64.5 -35.5t-19.5 -110.5v-313z" />
<glyph unicode="&#xf1;" horiz-adv-x="970" d="M92 0v1024h311v-166q60 191 252 191q121 0 177.5 -71.5t56.5 -223.5v-754h-330v702q0 60 -16 86.5t-51 26.5q-78 0 -78 -131v-684h-322zM141 1227q9 119 68 185.5t156 66.5q44 0 85 -17.5t66.5 -38t54.5 -38t50 -17.5q57 0 69 100l182 -59q-9 -119 -67 -185.5t-156 -66.5 q-44 0 -85 17.5t-66.5 38t-54.5 38t-50 17.5q-57 0 -69 -101z" />
<glyph unicode="&#xf2;" horiz-adv-x="942" d="M51 369v286q0 189 112 291.5t308 102.5t308 -102.5t112 -291.5v-286q0 -189 -112 -291.5t-308 -102.5t-308 102.5t-112 291.5zM92 1477h332l180 -322h-268zM389 332q0 -75 20 -109.5t62 -34.5t62 34.5t20 109.5v360q0 75 -20 109.5t-62 34.5t-62 -34.5t-20 -109.5v-360z " />
<glyph unicode="&#xf3;" horiz-adv-x="942" d="M51 369v286q0 189 112 291.5t308 102.5t308 -102.5t112 -291.5v-286q0 -189 -112 -291.5t-308 -102.5t-308 102.5t-112 291.5zM336 1155l180 322h332l-244 -322h-268zM389 332q0 -75 20 -109.5t62 -34.5t62 34.5t20 109.5v360q0 75 -20 109.5t-62 34.5t-62 -34.5 t-20 -109.5v-360z" />
<glyph unicode="&#xf4;" horiz-adv-x="942" d="M51 369v286q0 189 112 291.5t308 102.5t308 -102.5t112 -291.5v-286q0 -189 -112 -291.5t-308 -102.5t-308 102.5t-112 291.5zM121 1155l178 322h344l178 -322h-246l-104 205l-104 -205h-246zM389 332q0 -75 20 -109.5t62 -34.5t62 34.5t20 109.5v360q0 75 -20 109.5 t-62 34.5t-62 -34.5t-20 -109.5v-360z" />
<glyph unicode="&#xf5;" horiz-adv-x="942" d="M51 369v286q0 189 112 291.5t308 102.5t308 -102.5t112 -291.5v-286q0 -189 -112 -291.5t-308 -102.5t-308 102.5t-112 291.5zM106 1227q9 119 68 185.5t156 66.5q44 0 85 -17.5t67 -38t54.5 -38t49.5 -17.5q57 0 69 100l183 -59q-9 -119 -67.5 -185.5t-156.5 -66.5 q-44 0 -85 17.5t-67 38t-54.5 38t-49.5 17.5q-57 0 -69 -101zM389 332q0 -75 20 -109.5t62 -34.5t62 34.5t20 109.5v360q0 75 -20 109.5t-62 34.5t-62 -34.5t-20 -109.5v-360z" />
<glyph unicode="&#xf6;" horiz-adv-x="942" d="M51 369v286q0 189 112 291.5t308 102.5t308 -102.5t112 -291.5v-286q0 -189 -112 -291.5t-308 -102.5t-308 102.5t-112 291.5zM147 1167v269h269v-269h-269zM389 332q0 -75 20 -109.5t62 -34.5t62 34.5t20 109.5v360q0 75 -20 109.5t-62 34.5t-62 -34.5t-20 -109.5v-360z M526 1167v269h267v-269h-267z" />
<glyph unicode="&#xf7;" horiz-adv-x="901" d="M66 555v236h770v-236h-770zM307 340q0 64 40.5 103.5t103.5 39.5t103 -39t40 -104q0 -63 -40.5 -103t-102.5 -40q-63 0 -103.5 39.5t-40.5 103.5zM307 1006q0 64 40.5 103.5t103.5 39.5t103 -39t40 -104q0 -63 -40.5 -103.5t-102.5 -40.5q-63 0 -103.5 40t-40.5 104z" />
<glyph unicode="&#xf8;" horiz-adv-x="942" d="M51 369v286q0 189 112 291.5t308 102.5q144 0 244 -56l55 88l68 -49l-56 -88q109 -106 109 -289v-286q0 -189 -112 -291.5t-308 -102.5q-147 0 -252 60l-59 -94l-64 45l60 98q-105 102 -105 285zM389 311q3 -65 23 -94t59 -29q42 0 62 34.5t20 109.5v241zM389 463 l162 264q-3 57 -22.5 83t-57.5 26q-42 0 -62 -34.5t-20 -109.5v-229z" />
<glyph unicode="&#xf9;" horiz-adv-x="974" d="M82 270v754h330v-702q0 -111 71 -111q76 0 76 121v692h324v-1024h-312v156q-65 -181 -245 -181q-129 0 -186.5 74t-57.5 221zM106 1477h332l180 -322h-268z" />
<glyph unicode="&#xfa;" horiz-adv-x="974" d="M82 270v754h330v-702q0 -111 71 -111q76 0 76 121v692h324v-1024h-312v156q-65 -181 -245 -181q-129 0 -186.5 74t-57.5 221zM350 1155l180 322h332l-244 -322h-268z" />
<glyph unicode="&#xfb;" horiz-adv-x="974" d="M82 270v754h330v-702q0 -111 71 -111q76 0 76 121v692h324v-1024h-312v156q-65 -181 -245 -181q-129 0 -186.5 74t-57.5 221zM135 1155l178 322h344l179 -322h-246l-105 205l-104 -205h-246z" />
<glyph unicode="&#xfc;" horiz-adv-x="974" d="M82 270v754h330v-702q0 -111 71 -111q76 0 76 121v692h324v-1024h-312v156q-65 -181 -245 -181q-129 0 -186.5 74t-57.5 221zM162 1167v269h268v-269h-268zM541 1167v269h266v-269h-266z" />
<glyph unicode="&#xfd;" horiz-adv-x="794" d="M-33 1024h350l66 -518q12 -87 20 -291h9q6 178 18 287l64 522h333l-237 -1059q-45 -202 -161.5 -290.5t-322.5 -88.5q-58 0 -98 6v258q27 -6 60 -6q67 0 103 23t48 76l8 34zM262 1155l180 322h332l-244 -322h-268z" />
<glyph unicode="&#xfe;" horiz-adv-x="962" d="M94 -399v1884h324v-594q28 73 89 115.5t142 42.5q112 0 182 -88.5t70 -249.5v-322q0 -111 -21.5 -193.5t-60.5 -129.5t-86 -69t-104 -22q-159 0 -213 150v-524h-322zM414 371q0 -150 78 -150q44 0 62.5 41.5t18.5 130.5v260q0 150 -81 150q-78 0 -78 -139v-293z" />
<glyph unicode="&#xff;" horiz-adv-x="794" d="M-33 1024h350l66 -518q12 -87 20 -291h9q6 178 18 287l64 522h333l-237 -1059q-45 -202 -161.5 -290.5t-322.5 -88.5q-58 0 -98 6v258q27 -6 60 -6q67 0 103 23t48 76l8 34zM74 1167v269h268v-269h-268zM453 1167v269h266v-269h-266z" />
<glyph unicode="&#x152;" horiz-adv-x="1359" d="M51 489v490q0 230 126 352.5t364 122.5h774v-256h-369v-321h342v-256h-342v-365h383v-256h-788q-239 0 -364.5 125t-125.5 364zM397 485q0 -116 40.5 -179.5t115.5 -63.5h51v970h-53q-80 0 -117 -55.5t-37 -173.5v-498z" />
<glyph unicode="&#x153;" horiz-adv-x="1404" d="M51 360v287q0 202 109.5 302t298.5 100q137 0 225 -70q98 70 264 70q202 0 304 -101t102 -313v-176h-484v-125q0 -70 20.5 -102.5t63.5 -32.5q39 0 59.5 37.5t20.5 132.5v28l320 -41v-41q0 -165 -109 -252.5t-295 -87.5q-162 0 -266 72q-90 -72 -225 -72 q-118 0 -208 40.5t-145 129t-55 215.5zM381 332q0 -144 78 -144q40 0 58 32.5t18 111.5v354q0 81 -18.5 115.5t-57.5 34.5q-40 0 -59 -34.5t-19 -115.5v-354zM870 614h148v74q0 104 -17.5 143t-56.5 39q-38 0 -56 -32.5t-18 -102.5v-121z" />
<glyph unicode="&#x178;" horiz-adv-x="954" d="M-2 1454h352l101 -463q17 -78 28 -219h6q10 131 27 219l92 463h352l-305 -983v-471h-342v471zM156 1540v234h264v-234h-264zM532 1540v234h265v-234h-265z" />
<glyph unicode="&#x2c6;" horiz-adv-x="1228" d="M98 1155l178 322h345l178 -322h-246l-104 205l-105 -205h-246z" />
<glyph unicode="&#x2dc;" horiz-adv-x="1228" d="M102 1227q9 119 68 185.5t156 66.5q44 0 85 -17.5t67 -38t54.5 -38t49.5 -17.5q57 0 69 100l183 -59q-9 -119 -67.5 -185.5t-156.5 -66.5q-44 0 -85 17.5t-67 38t-54.5 38t-49.5 17.5q-57 0 -69 -101z" />
<glyph unicode="&#x2000;" horiz-adv-x="991" />
<glyph unicode="&#x2001;" horiz-adv-x="1982" />
<glyph unicode="&#x2002;" horiz-adv-x="991" />
<glyph unicode="&#x2003;" horiz-adv-x="1982" />
<glyph unicode="&#x2004;" horiz-adv-x="660" />
<glyph unicode="&#x2005;" horiz-adv-x="495" />
<glyph unicode="&#x2006;" horiz-adv-x="330" />
<glyph unicode="&#x2007;" horiz-adv-x="330" />
<glyph unicode="&#x2008;" horiz-adv-x="247" />
<glyph unicode="&#x2009;" horiz-adv-x="396" />
<glyph unicode="&#x200a;" horiz-adv-x="110" />
<glyph unicode="&#x2010;" horiz-adv-x="649" d="M66 420v299h518v-299h-518z" />
<glyph unicode="&#x2011;" horiz-adv-x="649" d="M66 420v299h518v-299h-518z" />
<glyph unicode="&#x2012;" horiz-adv-x="649" d="M66 420v299h518v-299h-518z" />
<glyph unicode="&#x2013;" horiz-adv-x="940" d="M66 440v258h808v-258h-808z" />
<glyph unicode="&#x2014;" horiz-adv-x="1370" d="M66 440v258h1239v-258h-1239z" />
<glyph unicode="&#x2018;" horiz-adv-x="489" d="M66 809v352q0 289 253 367l82 -168q-68 -25 -91 -61.5t-23 -102.5v-8h137v-379h-358z" />
<glyph unicode="&#x2019;" horiz-adv-x="489" d="M66 1075v379h358v-352q0 -289 -254 -367l-82 168q68 25 91.5 61.5t23.5 102.5v8h-137z" />
<glyph unicode="&#x201a;" horiz-adv-x="489" d="M66 0v379h358v-352q0 -289 -254 -367l-82 168q68 25 91.5 61.5t23.5 102.5v8h-137z" />
<glyph unicode="&#x201c;" horiz-adv-x="923" d="M66 811v352q0 289 253 367l82 -168q-68 -25 -91 -61.5t-23 -102.5v-8h137v-379h-358zM500 811v352q0 289 254 367l82 -168q-68 -25 -91.5 -61.5t-23.5 -102.5v-8h137v-379h-358z" />
<glyph unicode="&#x201d;" horiz-adv-x="923" d="M66 1075v379h358v-352q0 -289 -254 -367l-82 168q68 25 91.5 61.5t23.5 102.5v8h-137zM500 1075v379h358v-352q0 -289 -254 -367l-82 168q68 25 91.5 61.5t23.5 102.5v8h-137z" />
<glyph unicode="&#x201e;" horiz-adv-x="923" d="M66 0v379h358v-352q0 -289 -254 -367l-82 168q68 25 91.5 61.5t23.5 102.5v8h-137zM500 0v379h358v-352q0 -289 -254 -367l-82 168q68 25 91.5 61.5t23.5 102.5v8h-137z" />
<glyph unicode="&#x2022;" horiz-adv-x="628" d="M66 696q0 114 69 185t176 71q110 0 181 -70.5t71 -185.5q0 -111 -71 -180.5t-181 -69.5q-107 0 -176 69.5t-69 180.5z" />
<glyph unicode="&#x2026;" horiz-adv-x="1433" d="M66 0v377h317v-377h-317zM559 0v377h318v-377h-318zM1051 0v377h317v-377h-317z" />
<glyph unicode="&#x202f;" horiz-adv-x="396" />
<glyph unicode="&#x2039;" horiz-adv-x="573" d="M8 565l238 422h278l-231 -420l227 -430h-282z" />
<glyph unicode="&#x203a;" horiz-adv-x="573" d="M49 987h279l237 -422l-229 -428h-283l228 430z" />
<glyph unicode="&#x205f;" horiz-adv-x="495" />
<glyph unicode="&#x20ac;" horiz-adv-x="1015" d="M-14 532v130h98v129h-98v129h98v59q0 229 122.5 350t340.5 121q206 0 324 -97.5t118 -252.5v-53l-336 -43v55q0 68 -29.5 99.5t-78.5 31.5q-119 0 -119 -182v-88h272v-129h-272v-129h272v-130h-272v-108q0 -96 32.5 -143.5t88.5 -47.5q47 0 77.5 34.5t30.5 103.5v67 l336 -47v-43q0 -182 -121.5 -278.5t-326.5 -96.5q-217 0 -338 123.5t-121 354.5v81h-98z" />
<glyph unicode="&#x2122;" horiz-adv-x="1337" d="M18 1280v174h521v-174h-154v-655h-211v655h-156zM598 625v829h270l58 -344q7 -48 10 -111h6q2 55 8 111l58 344h270v-829h-176v348q0 95 10 248h-8q-2 -13 -9 -53.5t-14 -84.5l-75 -458h-136l-75 458l-21 138h-8q8 -123 8 -248v-348h-176z" />
<glyph unicode="&#x25fc;" horiz-adv-x="1024" d="M0 0v1024h1024v-1024h-1024z" />
</font>
</defs>
</svg>
